<svg width="25" height="26" viewBox="0 0 25 26" fill="none" xmlns="http://www.w3.org/2000/svg">
<g id="edit-05" clip-path="url(#clip0_698_11759)">
<path id="Icon" d="M11.3928 4.71429H7.04284C5.30268 4.71429 4.43259 4.71429 3.76794 5.05295C3.18329 5.35085 2.70796 5.82618 2.41007 6.41082C2.07141 7.07548 2.07141 7.94556 2.07141 9.68572V18.3857C2.07141 20.1259 2.07141 20.996 2.41007 21.6606C2.70796 22.2453 3.18329 22.7206 3.76794 23.0185C4.43259 23.3572 5.30268 23.3572 7.04284 23.3572H15.7428C17.483 23.3572 18.3531 23.3572 19.0177 23.0185C19.6024 22.7206 20.0777 22.2453 20.3756 21.6606C20.7143 20.996 20.7143 20.1259 20.7143 18.3857V14.0357M8.28567 17.1429H10.02C10.5267 17.1429 10.78 17.1429 11.0184 17.0856C11.2298 17.0349 11.4318 16.9512 11.6171 16.8376C11.8262 16.7095 12.0053 16.5304 12.3636 16.1721L22.2678 6.26787C23.1259 5.40985 23.1259 4.01874 22.2678 3.16072C21.4098 2.30271 20.0187 2.30271 19.1607 3.16072L9.2564 13.065C8.89815 13.4232 8.71902 13.6024 8.59092 13.8114C8.47734 13.9968 8.39365 14.1988 8.3429 14.4102C8.28567 14.6486 8.28567 14.9019 8.28567 15.4085V17.1429Z" stroke="#1B1B1B" stroke-width="2.7619" stroke-linecap="round" stroke-linejoin="round"/>
</g>
<defs>
<clipPath id="clip0_698_11759">
<rect width="24.8571" height="24.8571" fill="white" transform="translate(0 0.571411)"/>
</clipPath>
</defs>
</svg>
