<?xml version="1.0" encoding="UTF-8"?>
<svg version="1.1" xmlns="http://www.w3.org/2000/svg" width="128" height="128">
<path d="M0 0 C12.80710971 9.22386215 22.24533924 22.38207297 24.91796875 38.1015625 C26.46283413 55.49735515 24.33607634 70.63627185 13.91796875 85.1015625 C4.08303651 96.81350862 -9.00973025 105.94065275 -24.59472656 107.32470703 C-42.58480739 108.34548892 -57.86954039 105.51708462 -72.03125 93.625 C-84.12349445 82.17613554 -91.01310505 68.70273503 -91.55273438 52.00292969 C-91.7298383 34.46373803 -87.15238512 20.2357583 -74.89453125 7.2890625 C-54.29333665 -12.21602488 -24.02048463 -14.91364304 0 0 Z M-71.4609375 14.10546875 C-82.62618841 27.8535247 -85.77441706 41.73701752 -84.08203125 59.1015625 C-81.71126439 71.90931485 -73.96752452 83.21556039 -63.6171875 90.94140625 C-50.04427139 100.1522948 -35.5603885 102.411357 -19.515625 99.44140625 C-4.37260709 94.88073202 6.52470767 84.79007558 13.91796875 71.1015625 C19.59008375 59.69060174 20.0177794 44.6992022 16.35546875 32.5390625 C10.37380749 17.62703373 0.48285765 7.85019149 -13.75390625 0.7734375 C-33.52838882 -7.15869958 -57.08696646 -1.37154083 -71.4609375 14.10546875 Z " fill="#000000" transform="translate(97.08203125,14.8984375)"/>
<path d="M0 0 C0.639375 -0.00128906 1.27875 -0.00257812 1.9375 -0.00390625 C5.08317646 0.85996323 6.70329815 2.24999409 9 4.5625 C9.51138551 7.25315969 9.70373546 9.3090504 9.6640625 11.99609375 C9.66884613 12.71104507 9.67362976 13.4259964 9.67855835 14.16261292 C9.68195325 15.67133795 9.67277896 17.18013694 9.65185547 18.6887207 C9.62511473 20.99012589 9.65158746 23.28663819 9.68359375 25.58789062 C9.6802888 27.05730237 9.67388078 28.52671109 9.6640625 29.99609375 C9.67418365 30.67957382 9.68430481 31.36305389 9.69473267 32.06724548 C9.60084692 35.92372987 9.07104293 37.47618018 6.58740234 40.49389648 C4.07547501 42.50215845 3.13709427 43.25074787 0 43.1875 C-0.639375 43.20039062 -1.27875 43.21328125 -1.9375 43.2265625 C-5.25962767 42.15693806 -6.7977049 40.22388515 -9 37.5625 C-9.64697266 34.13671875 -9.64697266 34.13671875 -9.6640625 30.25 C-9.66884613 29.55865967 -9.67362976 28.86731934 -9.67855835 28.1550293 C-9.68194736 26.69935824 -9.6728145 25.24361004 -9.65185547 23.78808594 C-9.62506546 21.56792503 -9.65162647 19.35281739 -9.68359375 17.1328125 C-9.68028946 15.71353058 -9.67388281 14.29425179 -9.6640625 12.875 C-9.65842285 11.59238281 -9.6527832 10.30976562 -9.64697266 8.98828125 C-8.6917702 3.93039411 -5.49787587 -0.18843526 0 0 Z " fill="#000000" transform="translate(64,58.4375)"/>
<path d="M0 0 C3.55247432 0.87379409 4.94828114 2.4927342 6.9375 5.4765625 C7.63597125 8.3162489 7.63597125 10.6368761 6.9375 13.4765625 C4.94828114 16.4603908 3.55247432 18.07933091 0 18.953125 C-3.92313492 19.23547183 -5.73362371 18.69581336 -9.0625 16.4765625 C-11.28175086 13.14768621 -11.82140933 11.33719742 -11.5390625 7.4140625 C-10.07519871 1.46261629 -5.59135555 -0.40240816 0 0 Z " fill="#000000" transform="translate(66.0625,29.5234375)"/>
</svg>
