<?xml version="1.0" encoding="UTF-8"?>
<svg version="1.1" xmlns="http://www.w3.org/2000/svg" width="512" height="512">
<path d="M0 0 C1.13553407 -0.00445784 2.27106813 -0.00891569 3.44101232 -0.01350862 C4.68894255 -0.01332426 5.93687277 -0.01313989 7.22261906 -0.01294994 C8.56149228 -0.01624992 9.9003645 -0.01997577 11.23923546 -0.02409142 C14.92201466 -0.03410473 18.60477757 -0.03782715 22.28756845 -0.04048073 C26.2584794 -0.04438589 30.22937747 -0.05396422 34.20028019 -0.0626936 C43.79312141 -0.08245418 53.38596369 -0.09252465 62.97882017 -0.10142139 C67.49838126 -0.10580579 72.01794117 -0.11117228 76.53750134 -0.11641026 C91.56606236 -0.13342371 106.59462266 -0.14791656 121.62319183 -0.155159 C125.52303856 -0.15706884 129.42288527 -0.15898918 133.32273197 -0.16094494 C134.77663453 -0.16167055 134.77663453 -0.16167055 136.25990886 -0.16241082 C151.95163501 -0.17070615 167.6432848 -0.19603414 183.33497762 -0.22852562 C199.45253543 -0.26162617 215.57005448 -0.27961055 231.68764645 -0.28280324 C240.73406525 -0.28496578 249.78037276 -0.29367677 258.82675838 -0.31926441 C266.53345787 -0.34101254 274.24001905 -0.34900173 281.94674575 -0.33929763 C285.87548416 -0.33476452 289.80393747 -0.33658094 293.73263645 -0.35605907 C297.33732598 -0.37377553 300.94152423 -0.37262531 304.54621959 -0.35716178 C306.45117375 -0.35368852 308.35613357 -0.36974866 310.26101488 -0.38676625 C325.95981452 -0.27053737 338.92842742 5.2896677 350.35520267 15.95062733 C358.86746522 24.81162316 365.54459071 37.25083919 365.59431744 49.77873039 C365.60040858 50.71317673 365.60649972 51.64762306 365.61277544 52.61038595 C365.61443567 53.63395726 365.6160959 54.65752857 365.61780643 55.7121172 C365.62344998 56.80252794 365.62909352 57.89293868 365.63490808 59.01639217 C365.65266209 62.68530265 365.66333972 66.35419978 365.67405033 70.02313709 C365.68526614 72.65030561 365.6968984 75.27747237 365.70891666 77.90463734 C365.73741217 84.32073661 365.76052355 90.7368446 365.78169443 97.15297181 C365.79907224 102.39462743 365.81831047 107.63627316 365.8388567 112.87791729 C365.84178529 113.6258748 365.84471389 114.37383231 365.84773123 115.14445521 C365.85368941 116.66481179 365.85965062 118.18516836 365.86561482 119.70552491 C365.92142564 133.99431013 365.97102303 148.28311192 366.01861982 162.57192653 C366.05924051 174.7192608 366.10549893 186.86656262 366.15598392 199.01385975 C366.214862 213.18066684 366.26963074 227.34748142 366.3185848 241.51432651 C366.32388113 243.04327899 366.32918373 244.57223145 366.33449268 246.10118389 C366.33710252 246.85295794 366.33971235 247.604732 366.34240127 248.37928708 C366.36067519 253.56465874 366.38173282 258.75001437 366.40395832 263.93537045 C366.51900959 291.14436599 366.61642579 318.35725079 366.24983191 345.56466568 C366.22259728 347.73764904 366.20145845 349.91071942 366.1871264 352.08382618 C366.04645328 371.32538278 363.24437607 386.45113465 349.63645267 401.03656483 C340.41515514 409.89494905 327.85738029 416.24484645 314.90571785 416.26844215 C313.20241675 416.27512892 313.20241675 416.27512892 311.46470553 416.28195077 C310.2167753 416.28176641 308.96884508 416.28158205 307.68309879 416.2813921 C306.34422557 416.28469207 305.00535335 416.28841793 303.66648239 416.29253358 C299.98370319 416.30254688 296.30094028 416.30626931 292.6181494 416.30892289 C288.64723845 416.31282804 284.67634038 416.32240638 280.70543766 416.33113575 C271.11259644 416.35089633 261.51975416 416.3609668 251.92689767 416.36986354 C247.40733659 416.37424794 242.88777668 416.37961444 238.36821651 416.38485241 C223.33965549 416.40186586 208.31109519 416.41635871 193.28252602 416.42360115 C189.38267929 416.42551099 185.48283258 416.42743133 181.58298588 416.42938709 C180.6137175 416.42987083 179.64444913 416.43035457 178.64580899 416.43085297 C162.95408284 416.4391483 147.26243305 416.46447629 131.57074023 416.49696777 C115.45318242 416.53006832 99.33566337 416.5480527 83.2180714 416.55124539 C74.1716526 416.55340794 65.12534509 416.56211892 56.07895947 416.58770657 C48.37225998 416.60945469 40.6656988 416.61744389 32.9589721 416.60773978 C29.03023369 416.60320668 25.10178038 416.60502309 21.1730814 416.62450123 C17.56839187 416.64221768 13.96419362 416.64106746 10.35949825 416.62560394 C8.4545441 416.62213067 6.54958428 416.63819082 4.64470297 416.65520841 C-11.05409667 416.53897953 -24.02270957 410.97877445 -35.44948483 400.31781483 C-44.30786904 391.09651729 -50.65776645 378.53874244 -50.68136215 365.58708 C-50.68582 364.45154594 -50.69027784 363.31601187 -50.69487077 362.14606768 C-50.69468641 360.89813746 -50.69450204 359.65020723 -50.6943121 358.36446095 C-50.69761207 357.02558773 -50.70133792 355.6867155 -50.70545357 354.34784454 C-50.71546688 350.66506534 -50.7191893 346.98230244 -50.72184289 343.29951155 C-50.72574804 339.3286006 -50.73532637 335.35770253 -50.74405575 331.38679981 C-50.76381633 321.79395859 -50.7738868 312.20111632 -50.78278354 302.60825983 C-50.78716794 298.08869874 -50.79253444 293.56913883 -50.79777241 289.04957867 C-50.81478586 274.02101764 -50.82927871 258.99245734 -50.83652115 243.96388817 C-50.83843099 240.06404145 -50.84035133 236.16419473 -50.84230709 232.26434803 C-50.84279083 231.29507966 -50.84327457 230.32581128 -50.84377297 229.32717114 C-50.8520683 213.63544499 -50.87739629 197.94379521 -50.90988777 182.25210238 C-50.94298832 166.13454457 -50.9609727 150.01702552 -50.96416539 133.89943355 C-50.96632794 124.85301476 -50.97503892 115.80670724 -51.00062656 106.76032162 C-51.02237469 99.05362213 -51.03036389 91.34706095 -51.02065978 83.64033426 C-51.01612668 79.71159584 -51.01794309 75.78314253 -51.03742123 71.85444355 C-51.05513768 68.24975402 -51.05398746 64.64555577 -51.03852393 61.04086041 C-51.03505067 59.13590625 -51.05111082 57.23094643 -51.06812841 55.32606512 C-50.95189953 39.62726548 -45.39169445 26.65865258 -34.73073483 15.23187733 C-25.50943729 6.37349311 -12.95166244 0.0235957 0 0 Z M-12.54714108 40.13422108 C-18.69892381 48.17099187 -18.69759996 56.60124965 -18.66739559 66.31511402 C-18.66825002 67.32564888 -18.66910444 68.33618373 -18.66998476 69.37734085 C-18.67162868 72.7552221 -18.66613598 76.13305341 -18.66066647 79.51093006 C-18.66038433 81.93557706 -18.66054284 84.36022415 -18.66110897 86.7848711 C-18.66133651 92.00076179 -18.65850452 97.21664123 -18.65287113 102.4325285 C-18.64473159 109.97375333 -18.6421384 117.51497212 -18.64088314 125.05620087 C-18.63869648 137.29241612 -18.63204685 149.52862469 -18.62258053 161.76483631 C-18.61339644 173.64862503 -18.60632048 185.53241194 -18.60207272 197.4162035 C-18.60180999 198.14916535 -18.60154727 198.88212719 -18.60127658 199.63730001 C-18.59997151 203.31448708 -18.59870781 206.99167417 -18.59746468 210.66886127 C-18.58710408 241.15731932 -18.56942172 271.64576927 -18.54714108 302.13422108 C-17.28788002 301.19901723 -16.02991645 300.26206618 -14.77248287 299.32440662 C-14.07181194 298.80283482 -13.37114101 298.28126301 -12.64923763 297.74388599 C-9.43211544 295.28039843 -6.39817979 292.62499112 -3.35964108 289.94672108 C-2.04637706 288.79896971 -0.73256535 287.65184474 0.58176517 286.50531483 C1.55653812 285.65429188 1.55653812 285.65429188 2.55100346 284.78607655 C6.94334118 280.97111415 11.40188441 277.23381045 15.85129642 273.48578358 C17.49214629 272.10106638 19.12924698 270.71203217 20.76535892 269.32172108 C25.75024105 265.08794538 30.74701715 260.87800998 35.82785892 256.75922108 C39.58695745 253.70495353 43.26197062 250.57304613 46.9040308 247.38153553 C75.64789976 222.20876399 75.64789976 222.20876399 95.45285892 223.25922108 C114.0499079 225.31214207 125.6132153 238.11167688 138.15323734 250.7594347 C139.68113321 252.30034261 141.21234952 253.83788588 142.74436283 255.37469959 C145.98340116 258.62502084 149.21840697 261.8793367 152.45285892 265.13422108 C156.23271303 268.93772797 160.01422975 272.73955266 163.79993534 276.53723621 C165.30764249 278.05141783 166.81230877 279.56857716 168.3168726 281.08588123 C169.22541996 281.99773182 170.13396732 282.90958241 171.07004642 283.84906483 C171.8703931 284.65464832 172.67073978 285.46023182 173.49533939 286.29022694 C176.03975537 288.68708075 177.07909035 289.08866222 180.59348392 289.51703358 C185.6692128 289.01357059 188.22806112 287.04422099 192.20285892 284.00922108 C192.93383793 283.47224598 193.66481693 282.93527088 194.41794682 282.38202381 C195.97612263 281.23456326 197.52882211 280.07963473 199.07639408 278.91791248 C201.42411745 277.15579343 203.78527053 275.41356964 206.15207767 273.67718983 C211.72973289 269.5816483 217.30515128 265.48282623 222.85129642 261.3446703 C251.21786201 240.19181534 251.21786201 240.19181534 268.45285892 242.13422108 C281.74008252 244.35810238 291.1134402 250.49202192 301.07004642 259.20843983 C304.42046535 262.13592427 307.8806416 264.90095518 311.39035892 267.63422108 C311.96205814 268.07959217 312.53375736 268.52496326 313.1227808 268.98383045 C314.29136533 269.89331113 315.4603144 270.8023236 316.62961674 271.71088123 C318.56502356 273.22178399 320.49033266 274.7448665 322.41379642 276.27093983 C323.05840824 276.78140858 323.70302006 277.29187733 324.36716557 277.81781483 C325.61245816 278.80443893 326.85648163 279.79266745 328.09909916 280.78265858 C330.5117306 283.09977896 330.5117306 283.09977896 333.45285892 284.13422108 C333.49851212 255.24157276 333.53389273 226.34892872 333.55498958 197.45625142 C333.55749091 194.04299971 333.56007956 190.62974807 333.56272221 187.21649647 C333.56324683 186.53699709 333.56377145 185.85749772 333.56431197 185.15740746 C333.57300782 174.16391491 333.58877327 163.17044333 333.60716452 152.17696322 C333.62588639 140.89148786 333.63683084 129.60602297 333.64103591 118.32053131 C333.64364253 111.98382061 333.64976625 105.64715745 333.66431904 99.310462 C333.67790988 93.34419676 333.68207849 87.37799857 333.67907429 81.41171932 C333.67962377 79.2240306 333.68359222 77.0363396 333.69126987 74.84866428 C333.70125454 71.85645221 333.69881489 68.86449163 333.69336796 65.87227345 C333.69919364 65.01135281 333.70501932 64.15043217 333.71102154 63.26342303 C333.66410055 53.69406361 332.06548287 45.37862438 325.45285892 38.13422108 C319.08726952 33.35148843 312.84709517 32.01160789 304.95800304 32.00558662 C303.8850713 32.00236218 302.81213955 31.99913773 301.70669472 31.99581558 C299.95515046 31.99813848 299.95515046 31.99813848 298.16822147 32.00050831 C296.91917243 31.99824275 295.67012338 31.9959772 294.38322437 31.99364299 C290.92333714 31.98753455 287.46347411 31.98765745 284.00358272 31.98883736 C280.26934516 31.98904161 276.53511533 31.98352035 272.80088139 31.97877979 C265.48773431 31.97047813 258.17459529 31.96772518 250.86144389 31.96716741 C244.91676461 31.96669206 238.97208799 31.96463636 233.02740955 31.96146679 C216.17009871 31.95266185 199.31279423 31.94804721 182.45548107 31.94879726 C181.54695463 31.94883722 180.63842819 31.94887718 179.70237064 31.94891834 C178.79273402 31.94895922 177.88309739 31.9490001 176.94589601 31.94904222 C162.20152417 31.94944874 147.45717785 31.93987738 132.71281339 31.92577998 C117.57041682 31.91141632 102.42803271 31.90450977 87.28562915 31.90537375 C78.7854952 31.90570571 70.28538802 31.90295928 61.7852602 31.8921957 C54.54877313 31.88309088 47.31232497 31.88091533 40.07583465 31.88770512 C36.38473894 31.8909703 32.69371789 31.89102707 29.00262928 31.88235188 C24.99885089 31.87303862 20.9952454 31.87926288 16.99146366 31.88698292 C15.82822893 31.88183935 14.6649942 31.87669579 13.46650994 31.87139636 C3.42568335 31.91422512 -4.82982364 33.22538451 -12.54714108 40.13422108 Z M78.45285892 264.13422108 C77.33246993 265.09879659 76.20997412 266.06092896 75.08567142 267.02093983 C72.68473098 269.07108062 70.28968622 271.12778337 67.89817142 273.18890858 C64.06449859 276.48065969 60.15263688 279.67169948 56.23020267 282.85687733 C53.10889625 285.41626079 50.02832468 288.02012024 46.95285892 290.63422108 C43.00635412 293.98869235 39.03643821 297.30643937 35.01535892 300.57172108 C30.15156867 304.52930295 25.39404661 308.59964554 20.64450932 312.69257069 C16.25762355 316.46518447 11.79792335 320.1374874 7.30442142 323.78265858 C3.32236226 327.06649367 -0.59355697 330.42709038 -4.46559811 333.84003162 C-7.80234905 336.75632036 -11.13259173 339.12889923 -14.92214108 341.44672108 C-17.96177543 343.74195518 -18.4796045 344.75524197 -19.16042233 348.57562733 C-19.23451479 352.50252774 -19.00123982 356.23480429 -18.54714108 360.13422108 C-18.45819576 361.01078358 -18.36925045 361.88734608 -18.27760983 362.79047108 C-17.19696079 369.53562108 -13.85634083 375.60719581 -8.39870358 379.77484608 C-0.09603286 384.70544234 8.368966 384.28053101 17.77509403 384.26793385 C19.01612483 384.2701994 20.25715563 384.27246496 21.53579342 384.27479917 C24.96869828 384.28002483 28.40155064 384.28078569 31.83445573 384.27960479 C35.54142807 384.27940034 39.24839266 384.28492378 42.95536137 384.28966236 C50.21322729 384.2979594 57.4710851 384.30071676 64.72895537 384.30127474 C70.62926576 384.3017503 76.52957347 384.30380702 82.429883 384.30697536 C99.16554499 384.31577893 115.90120057 384.32039514 132.63686489 384.31964489 C133.53858921 384.31960493 134.44031353 384.31956498 135.36936283 384.31952381 C136.72360421 384.31946249 136.72360421 384.31946249 138.105204 384.31939993 C152.73890584 384.31899342 167.37258196 384.32856497 182.00627635 384.34266218 C197.03909822 384.35702942 212.07190754 384.36393219 227.10473645 384.3630684 C235.54173025 384.36273658 243.97869708 384.36547729 252.4156847 384.37624645 C259.59832026 384.38535596 266.7809166 384.38752295 273.96355544 384.38073703 C277.62642848 384.37747426 281.28922631 384.37740636 284.95209217 384.38609028 C288.92698169 384.39541686 292.90176165 384.38917297 296.87665653 384.38145924 C298.0285144 384.3866028 299.18037227 384.39174636 300.36713493 384.39704579 C310.71060748 384.35269606 319.55208561 383.33066189 327.45285892 376.13422108 C336.42092218 364.39032872 335.18719176 344.99215621 334.02317142 330.73285389 C333.37103296 326.61790482 332.52242049 324.30617915 329.51291752 321.45428944 C327.20185172 319.81524755 324.84508995 318.41987316 322.31711674 317.1415453 C319.14490136 315.42748549 316.48106909 313.10121646 313.70285892 310.82172108 C312.53283943 309.9065834 311.3609176 308.99387337 310.18723392 308.08343983 C306.04969641 304.83868113 302.00177258 301.48845033 297.95285892 298.13422108 C284.45506797 286.96759074 284.45506797 286.96759074 270.45285892 276.44672108 C269.81348392 275.98910389 269.17410892 275.5314867 268.51535892 275.06000233 C265.52610246 273.7182338 263.71256426 273.66116628 260.45285892 274.13422108 C257.80589111 275.55754004 255.5384588 277.37752191 253.20285892 279.25922108 C252.51176029 279.79692127 251.82066166 280.33462147 251.10862064 280.88861561 C249.63425288 282.03791551 248.16480323 283.19354797 246.69992924 284.3549242 C244.49103956 286.10398852 242.26805051 287.83308694 240.03879642 289.55609608 C233.86850849 294.32909487 227.72294759 299.13314347 221.59348392 303.95843983 C220.7953931 304.5844408 219.99730228 305.21044178 219.17502689 305.85541248 C217.66099713 307.04314001 216.14941282 308.23399465 214.64084721 309.42865467 C203.49025836 318.16522521 192.12954848 324.42711053 177.45285892 323.13422108 C162.4470193 320.86701355 153.36052805 313.65512511 142.96848392 303.07562733 C141.89936808 302.00157307 140.82942555 300.92834114 139.75870609 299.85588551 C137.53067027 297.62026188 135.30920365 295.37839571 133.09299564 293.13104725 C130.26856743 290.26697615 127.43341663 287.4138384 124.5939455 284.56468773 C121.86110653 281.82182497 119.13318403 279.07409519 116.40598392 276.32562733 C115.63883438 275.55338416 115.63883438 275.55338416 114.85618687 274.76554012 C105.77025926 265.60680044 105.77025926 265.60680044 102.01828861 261.05975819 C98.90956647 257.51466707 96.90335904 256.4243211 92.32785892 255.50922108 C86.3025102 256.48105152 82.93170868 260.16183525 78.45285892 264.13422108 Z " fill="#3C2716" transform="translate(98.54714107513428,47.86577892303467)"/>
<path d="M0 0 C13.51430726 10.34030482 23.5110283 23.86661344 26 41 C27.3709048 58.07074497 24.49757288 72.89733178 13.859375 86.796875 C3.41107169 98.85260959 -9.83379824 107.86235112 -26.09765625 109.16845703 C-43.70982066 110.08352383 -58.71771264 106.46131571 -72.375 94.625 C-84.56426274 82.94938528 -91.8466174 69.41050739 -92.35375977 52.34814453 C-92.50434919 35.70022358 -88.00684071 21.44398992 -76.27734375 9.24609375 C-75.52582031 8.50488281 -74.77429688 7.76367188 -74 7 C-73.36191406 6.35160156 -72.72382813 5.70320312 -72.06640625 5.03515625 C-52.96469692 -13.11345324 -21.6279232 -13.80386829 0 0 Z M-53.52734375 32.95703125 C-58.30712636 39.58787026 -60.21952206 46.91595171 -59 55 C-57.19332818 62.13047399 -54.01194752 67.66633993 -48 72 C-40.71618439 76.12545523 -33.5379396 77.40316611 -25.39453125 75.33984375 C-18.36347136 72.88269574 -13.37656469 69.19601184 -9.68359375 62.67578125 C-6.18811813 54.91753049 -5.75159076 47.8558377 -8.5625 39.8125 C-11.86162301 32.4644533 -17.05013268 27.60183676 -24.55078125 24.66015625 C-35.2221754 21.78381556 -46.10307549 24.72539576 -53.52734375 32.95703125 Z " fill="#3C2716" transform="translate(353,142)"/>
</svg>
