<?xml version="1.0" encoding="UTF-8"?>
<svg version="1.1" xmlns="http://www.w3.org/2000/svg" width="512" height="512">
<path d="M0 0 C0.57443848 0.41749512 1.14887695 0.83499023 1.74072266 1.26513672 C10.39296123 7.58570857 18.28131115 14.57889359 26 22 C26.54688477 22.51965332 27.09376953 23.03930664 27.65722656 23.57470703 C35.94102146 31.47179512 43.18657241 39.81134296 50 49 C50.4237793 49.56299805 50.84755859 50.12599609 51.28417969 50.70605469 C88.28976672 99.9994308 103.9601537 163.54712486 95.47875977 224.53686523 C90.03459657 259.08048521 78.02761277 293.15488941 58 322 C57.48211914 322.74942871 56.96423828 323.49885742 56.43066406 324.27099609 C48.91900984 335.03419242 40.86050425 344.95907682 31.65527344 354.31396484 C30.06874984 355.92997251 28.50524505 357.56539761 26.9453125 359.20703125 C19.8615146 366.57955821 12.19563123 372.90360857 4 379 C3.43555176 379.42522949 2.87110352 379.85045898 2.28955078 380.28857422 C-28.40261106 403.32762557 -64.23344274 417.6659862 -102 424 C-103.20914062 424.20625 -104.41828125 424.4125 -105.6640625 424.625 C-161.42540878 432.92973337 -222.72681755 419.12819645 -269 387 C-269.74942871 386.48211914 -270.49885742 385.96423828 -271.27099609 385.43066406 C-282.03419242 377.91900984 -291.95907682 369.86050425 -301.31396484 360.65527344 C-302.92997251 359.06874984 -304.56539761 357.50524505 -306.20703125 355.9453125 C-313.57955821 348.8615146 -319.90360857 341.19563123 -326 333 C-326.63784424 332.15332764 -326.63784424 332.15332764 -327.28857422 331.28955078 C-350.31835733 300.60973592 -364.75532458 264.76986653 -371 227 C-371.12842285 226.27683594 -371.2568457 225.55367188 -371.38916016 224.80859375 C-381.31404328 167.17486686 -364.75701996 104.48985913 -331.8828125 56.9375 C-329.96686929 54.25368849 -328.00512283 51.61768581 -326 49 C-325.37738281 48.18402344 -324.75476563 47.36804688 -324.11328125 46.52734375 C-318.76835324 39.68626956 -312.97476326 33.28881636 -307 27 C-306.49307617 26.46439453 -305.98615234 25.92878906 -305.46386719 25.37695312 C-297.55685312 17.08026089 -289.18303471 9.84528464 -280 3 C-278.57880859 1.92105469 -278.57880859 1.92105469 -277.12890625 0.8203125 C-257.92689615 -13.50455425 -236.58203118 -24.17707185 -214 -32 C-212.96746094 -32.36665771 -212.96746094 -32.36665771 -211.9140625 -32.74072266 C-199.58885352 -37.08115142 -186.83848525 -39.67838514 -174 -42 C-173.2565332 -42.13567383 -172.51306641 -42.27134766 -171.74707031 -42.41113281 C-112.80486173 -52.52446488 -47.80183791 -35.12468293 0 0 Z M-273 55 C-273.77988281 55.72703125 -274.55976563 56.4540625 -275.36328125 57.203125 C-301.45497394 82.22890484 -318.35937428 117.02488767 -326 152 C-326.16371094 152.71220703 -326.32742188 153.42441406 -326.49609375 154.15820312 C-332.08016066 179.42495216 -331.02686563 208.97811648 -325 234 C-324.79101074 234.88848633 -324.58202148 235.77697266 -324.36669922 236.69238281 C-312.34250865 286.32031541 -280.17400908 328.50611947 -236.97802734 355.25195312 C-193.34524907 381.48921408 -141.38784629 389.09760654 -91.9609375 377.27294922 C-41.50658338 364.44160692 0.29401798 332.46269141 27.3828125 288.15625 C38.16020722 269.98187562 45.15361655 250.5132433 50 230 C50.19352051 229.19401367 50.38704102 228.38802734 50.58642578 227.55761719 C56.25069755 202.59586941 55.05651571 172.70125308 49 148 C48.75862305 147.0090332 48.51724609 146.01806641 48.26855469 144.99707031 C35.74599508 95.26911979 3.85109041 52.52746021 -40 26 C-115.96487636 -18.62403624 -209.84833838 -5.2123036 -273 55 Z " fill="#000000" transform="translate(394,65)"/>
<path d="M0 0 C5.54948592 3.29284849 8.77304162 7.85235691 10.94471931 13.89441109 C12.22886701 19.05067868 11.98590754 24.34154229 11.96655273 29.62475586 C11.97341599 30.93795303 11.98027924 32.25115021 11.98735046 33.60414124 C12.0052117 37.18687375 12.00412691 40.76936041 11.99840808 44.35212398 C11.99530603 47.35148599 12.00141991 50.35080147 12.00744683 53.35015684 C12.02146729 60.43001089 12.01995145 67.50974421 12.00854492 74.58959961 C11.99706549 81.87537189 12.01114184 89.16077599 12.0379414 96.44649976 C12.06014508 102.71938752 12.06672532 108.99216009 12.06086498 115.26508433 C12.05750539 119.00391467 12.05984356 122.74250906 12.07711601 126.48130608 C12.09554961 130.65305538 12.08135027 134.82409476 12.06420898 138.99584961 C12.07387695 140.22262421 12.08354492 141.4493988 12.09350586 142.71334839 C12.02704423 150.45246937 11.316512 157.41805994 5.7832098 163.25047207 C-0.52071124 168.97305279 -5.44749836 169.8863318 -13.94921875 169.75390625 C-20.30263022 169.06378205 -24.10274406 166.03547551 -28.3125 161.4375 C-31.63108201 156.65483769 -32.68526362 152.33238963 -32.70492554 146.55767822 C-32.71345551 145.41955688 -32.72198547 144.28143555 -32.73077393 143.10882568 C-32.72986755 141.87440735 -32.72896118 140.63998901 -32.72802734 139.36816406 C-32.73474457 138.05686523 -32.74146179 136.74556641 -32.74838257 135.39453125 C-32.76600281 131.80753385 -32.77073633 128.22063197 -32.77201414 124.63359547 C-32.77343884 122.38850991 -32.77771453 120.1434484 -32.78300858 117.89836884 C-32.80149747 110.05430061 -32.80968084 102.21030023 -32.80810547 94.36621094 C-32.80690518 87.07369891 -32.82798806 79.78148338 -32.8595928 72.48904634 C-32.88581652 66.21279845 -32.89647018 59.93664703 -32.89519465 53.66034484 C-32.89468669 49.91864191 -32.90027666 46.17720249 -32.92155075 42.4355545 C-32.94466331 38.25663777 -32.93537515 34.07837747 -32.92333984 29.89941406 C-32.93457886 28.67309265 -32.94581787 27.44677124 -32.95739746 26.18328857 C-32.89983086 18.29590438 -32.19157962 10.53515619 -26.68744469 4.43564224 C-19.43179083 -2.27478803 -9.16279284 -4.18074198 0 0 Z " fill="#000000" transform="translate(266.4375,214.625)"/>
<path d="M0 0 C5.30020616 3.15174783 9.22263819 7.33459586 11.79296875 12.96484375 C13.52331869 20.83007076 12.47917854 27.09794769 8.48046875 34.08984375 C4.42861931 38.75619168 -0.13516206 41.68838754 -6.3515625 42.42578125 C-12.97503579 42.51258955 -18.11075124 42.14013948 -23.51953125 38.08984375 C-28.88783651 32.84083416 -31.14133114 27.49364474 -31.95703125 20.15234375 C-31.69181113 14.52746706 -29.65203841 9.41036778 -25.8359375 5.2578125 C-18.45660835 -1.26456229 -9.64671512 -3.48478236 0 0 Z " fill="#000000" transform="translate(265.51953125,128.91015625)"/>
</svg>
