<?xml version="1.0" encoding="UTF-8"?>
<svg version="1.1" xmlns="http://www.w3.org/2000/svg" width="512" height="512">
<path d="M0 0 C0.7317041 0.21430664 1.4634082 0.42861328 2.21728516 0.64941406 C25.18601207 7.62686946 44.2632389 19.810894 61 37 C61.48339844 37.42667969 61.96679688 37.85335937 62.46484375 38.29296875 C77.41745265 51.97900372 87.52788922 72.77191112 93 92 C93.29519531 92.99128906 93.59039062 93.98257813 93.89453125 95.00390625 C103.13570256 128.46331961 97.64045383 165.18966893 81.125 195.43359375 C61.85708556 227.79281295 32.57382893 250.45062193 -4 260 C-4.66 260 -5.32 260 -6 260 C-6 295.31 -6 330.62 -6 367 C8.85 367 23.7 367 39 367 C46.401768 370.700884 50.01630433 372.56030016 53.3125 379.9375 C55.05716752 387.70920076 53.50090784 393.0170727 49.3125 399.6875 C44.16424793 404.83575207 38.15870806 406.43722385 31.1015625 407.5078125 C28.79538834 407.85312137 28.79538834 407.85312137 27 410 C26.72345612 411.93681136 26.72345612 411.93681136 26.8046875 414.1328125 C26.81113281 414.93847656 26.81757813 415.74414062 26.82421875 416.57421875 C26.84935547 417.83685547 26.84935547 417.83685547 26.875 419.125 C26.88402344 419.97449219 26.89304687 420.82398438 26.90234375 421.69921875 C26.92594353 423.79959884 26.96181517 425.89983444 27 428 C27.9178125 428.15855469 28.835625 428.31710937 29.78125 428.48046875 C45.6128906 431.49047605 45.6128906 431.49047605 50.33203125 437.7734375 C53.47469613 443.03712356 54.76219912 447.91329557 54 454 C52.14852201 459.96711279 48.47236087 464.90949404 43 468 C36.94693919 469.82714935 31.54806017 470.27130261 25.25 470.1953125 C24.35128174 470.1924826 23.45256348 470.18965271 22.52661133 470.18673706 C19.68426635 470.17563125 16.84224814 470.15054505 14 470.125 C12.0612025 470.11495777 10.12240001 470.10583411 8.18359375 470.09765625 C3.45560518 470.07572345 -1.2721422 470.04126084 -6 470 C-5.98549805 470.88115479 -5.97099609 471.76230957 -5.95605469 472.67016602 C-5.94477539 473.83217529 -5.93349609 474.99418457 -5.921875 476.19140625 C-5.90737305 477.34068604 -5.89287109 478.48996582 -5.87792969 479.67407227 C-6.1663015 487.53105057 -9.26864998 494.21162061 -14.7890625 499.81640625 C-22.50116607 506.94786882 -29.62864794 508.76724955 -40.046875 508.41015625 C-49.05950968 507.47505087 -55.31789016 502.84075235 -61 496 C-65.95474431 489.33672317 -66.29565039 481.56424979 -66.24050903 473.57202148 C-66.24221788 472.65455391 -66.24392673 471.73708633 -66.24568737 470.79181671 C-66.24896686 467.73482817 -66.238004 464.67806188 -66.22705078 461.62109375 C-66.22648633 459.42289739 -66.22680388 457.22470066 -66.22793579 455.02650452 C-66.228509 449.07052347 -66.2167598 443.11462319 -66.20278788 437.15866089 C-66.19027522 430.92999685 -66.18910959 424.70133091 -66.18673706 418.47265625 C-66.18122955 408.02195873 -66.16874184 397.57128881 -66.15087891 387.12060547 C-66.13250409 376.35921374 -66.11835544 365.59783005 -66.10986328 354.83642578 C-66.10933783 354.17242756 -66.10881239 353.50842933 -66.10827102 352.82430995 C-66.10566083 349.49302718 -66.10313796 346.16174436 -66.10064721 342.8304615 C-66.07974887 315.22028709 -66.04457599 287.61014563 -66 260 C-66.8207048 259.79880051 -67.64140961 259.59760101 -68.48698425 259.39030457 C-69.56531021 259.12381607 -70.64363617 258.85732758 -71.75463867 258.58276367 C-72.82284348 258.31968918 -73.89104828 258.05661469 -74.99162292 257.78556824 C-96.13822667 252.26362075 -114.29883165 239.81878864 -130 225 C-130.74894531 224.31550781 -131.49789062 223.63101563 -132.26953125 222.92578125 C-156.81763201 199.66742309 -169.29001159 164.81158429 -170.35546875 131.53955078 C-170.50270559 116.16434356 -167.95853573 100.53671447 -163 86 C-162.64164063 84.93910156 -162.28328125 83.87820312 -161.9140625 82.78515625 C-154.19626457 61.41876937 -140.66296549 41.39531688 -123 27 C-122.0409375 26.21496094 -121.081875 25.42992188 -120.09375 24.62109375 C-101.77266707 9.91433555 -81.04932697 1.17150396 -58 -3 C-56.60974609 -3.26151855 -56.60974609 -3.26151855 -55.19140625 -3.52832031 C-37.41587127 -6.15548781 -17.17097708 -5.04870528 0 0 Z M-86 74 C-87.15435547 75.01513672 -87.15435547 75.01513672 -88.33203125 76.05078125 C-102.74700011 89.48346944 -109.83942836 107.9260704 -110.9609375 127.26171875 C-111.17716012 147.95422307 -103.54470725 166.78567693 -89.32421875 181.73046875 C-74.19089837 196.507711 -55.49496625 204.26108508 -34.33886719 204.2487793 C-13.62817359 203.9203007 4.61212529 194.53175345 19 180 C32.09377819 166.00483853 39.17734422 147.15317571 39 128 C37.71196871 105.18344571 28.20980476 87.25225205 11.5625 71.75 C-3.75066905 58.62819824 -22.85163009 53.83068979 -42.65087891 54.80908203 C-59.11099346 56.14682986 -73.78180489 62.94346691 -86 74 Z " fill="#000000" transform="translate(292,4)"/>
</svg>
