<svg width="20" height="20" viewBox="0 0 20 20" fill="none" xmlns="http://www.w3.org/2000/svg">
<g id="Icons /lift arrow">
<rect width="20" height="20" transform="translate(20 20) rotate(180)" fill="white"/>
<path id="Vector" d="M11.1668 9.40832C11.2449 9.48579 11.3069 9.57796 11.3492 9.67951C11.3915 9.78106 11.4133 9.88998 11.4133 9.99999C11.4133 10.11 11.3915 10.2189 11.3492 10.3205C11.3069 10.422 11.2449 10.5142 11.1668 10.5917L7.34176 14.4083C7.26365 14.4858 7.20165 14.578 7.15935 14.6795C7.11704 14.7811 7.09526 14.89 7.09526 15C7.09526 15.11 7.11704 15.2189 7.15935 15.3205C7.20165 15.422 7.26365 15.5142 7.34176 15.5917C7.49789 15.7469 7.7091 15.834 7.92926 15.834C8.14941 15.834 8.36062 15.7469 8.51676 15.5917L12.3418 11.7667C12.8099 11.2979 13.0729 10.6625 13.0729 9.99999C13.0729 9.33749 12.8099 8.70208 12.3418 8.23332L8.51676 4.40832C8.36154 4.25437 8.15204 4.16758 7.93342 4.16666C7.82375 4.16602 7.71503 4.18704 7.6135 4.22851C7.51197 4.26998 7.41962 4.33109 7.34176 4.40832C7.26365 4.48579 7.20165 4.57796 7.15935 4.67951C7.11704 4.78106 7.09526 4.88998 7.09526 4.99999C7.09526 5.11 7.11704 5.21892 7.15935 5.32047C7.20165 5.42202 7.26365 5.51419 7.34176 5.59166L11.1668 9.40832Z" fill="#646873"/>
</g>
</svg>
