<?xml version="1.0" encoding="UTF-8"?>
<svg version="1.1" xmlns="http://www.w3.org/2000/svg" width="512" height="512">
<path d="M0 0 C168.96 0 337.92 0 512 0 C512 168.96 512 337.92 512 512 C343.04 512 174.08 512 0 512 C0 343.04 0 174.08 0 0 Z " fill="#3C2716" transform="translate(0,0)"/>
<path d="M0 0 C168.96 0 337.92 0 512 0 C512 168.96 512 337.92 512 512 C343.04 512 174.08 512 0 512 C0 343.04 0 174.08 0 0 Z M75 51 C74.195625 51.69351563 73.39125 52.38703125 72.5625 53.1015625 C70.00025045 55.35995554 67.49275889 57.6651036 65 60 C64.50773926 60.45826172 64.01547852 60.91652344 63.50830078 61.38867188 C35.02214461 88.12606745 16.08919696 123.81989954 6.75 161.5 C6.50338623 162.48403809 6.25677246 163.46807617 6.00268555 164.48193359 C2.45012114 179.51551122 1.59078752 194.54815652 1.625 209.9375 C1.62487915 210.78118134 1.6247583 211.62486267 1.62463379 212.49411011 C1.66455693 232.19037601 3.82372797 251.20836383 10 270 C10.41682583 271.56245755 10.83349845 273.12495598 11.25 274.6875 C19.68013889 302.21997488 34.8755284 327.64434004 54 349 C54.50208984 349.56380371 55.00417969 350.12760742 55.52148438 350.70849609 C61.33466349 357.20911829 67.18870416 363.52472016 74 369 C75.52173828 370.24330078 75.52173828 370.24330078 77.07421875 371.51171875 C103.68436046 393.01463275 133.62770126 407.32541309 167 415 C167.92296875 415.22171875 168.8459375 415.4434375 169.796875 415.671875 C172.19162546 416.20225597 174.57670614 416.62066981 177 417 C178.64355469 417.27650391 178.64355469 417.27650391 180.3203125 417.55859375 C233.73870952 425.25806449 289.86554177 411.25519172 333.29443359 379.28125 C337.27883073 376.28810425 341.18174413 373.20329639 345 370 C348.98577229 371.60288063 351.65547812 374.38706194 354.6171875 377.39013672 C355.17314606 377.94579756 355.72910461 378.5014584 356.3019104 379.07395744 C358.16439085 380.9378273 360.01962433 382.80874714 361.875 384.6796875 C363.20853977 386.01706538 364.54253546 387.35398879 365.87695312 388.69049072 C368.74994384 391.56980571 371.61979709 394.45219953 374.48730469 397.3369751 C379.01992626 401.8966139 383.56014168 406.44863927 388.1015625 410.99951172 C398.56041702 421.48246835 409.00923807 431.9754075 419.45800781 442.46841431 C429.03385478 452.08459691 438.61178923 461.69867501 448.19784546 471.30468178 C452.71385921 475.83067332 457.22494786 480.36150077 461.73236084 484.89605713 C464.53516161 487.71375598 467.34208114 490.52732372 470.15014648 493.33977509 C471.4531889 494.64656783 472.75449809 495.95509143 474.05395508 497.26544952 C475.82566495 499.05155439 477.60341664 500.83142029 479.3828125 502.60986328 C479.89760162 503.13184233 480.41239075 503.65382137 480.94277954 504.19161797 C485.09173592 508.31677781 487.99951767 510.28504448 493.875 510.3125 C498.29695427 510.20845402 501.28651035 509.56407619 505 507 C508.79110998 502.90150272 510.15089259 499.72468031 510.3125 494.1875 C510.34988281 493.35605469 510.38726562 492.52460938 510.42578125 491.66796875 C509.46018923 485.61751602 504.5613713 481.27352133 500.355896 477.11538696 C499.79711518 476.55489729 499.23833436 475.99440762 498.66262078 475.41693342 C496.80030047 473.55133465 494.93095202 471.69294641 493.06152344 469.83447266 C491.72061928 468.49413296 490.380156 467.15335208 489.0401001 465.81216431 C485.40855357 462.18004466 481.77087969 458.5541186 478.13206768 454.9292798 C474.32748657 451.13721278 470.52857957 447.33947009 466.72906494 443.54232788 C459.5366764 436.3561521 452.33920542 429.17508923 445.13989091 421.99585283 C436.94253493 413.82086215 428.75086651 405.64018245 420.55966902 397.45902181 C403.71276341 380.63301359 386.85873399 363.81415622 370 347 C371.86064401 343.09101313 374.32981527 339.80946755 376.9375 336.375 C390.55759746 318.02993082 401.6674315 297.68507662 409 276 C409.33257812 275.02675781 409.66515625 274.05351562 410.0078125 273.05078125 C412.54376105 264.93374907 414.12074596 256.6621251 415.6875 248.3125 C415.90212891 247.17216309 416.11675781 246.03182617 416.33789062 244.85693359 C420.95928013 219.39130563 420.37001886 193.27763365 415 168 C414.81276367 167.10748535 414.62552734 166.2149707 414.43261719 165.29541016 C406.71667059 129.54752284 389.79024773 97.07678818 365.0390625 70.2265625 C363.17658618 68.19282399 361.39915443 66.11048702 359.625 64 C342.95722546 44.96203733 319.93585791 30.33563954 297 20 C296.19256348 19.63277832 295.38512695 19.26555664 294.55322266 18.88720703 C280.39701356 12.53728062 266.1795409 8.15911361 251 5 C250.1946582 4.82210938 249.38931641 4.64421875 248.55957031 4.4609375 C188.03596076 -8.48089501 121.31147715 10.91162759 75 51 Z " fill="#3C2716" transform="translate(0,0)"/>
<path d="M0 0 C0.89835571 0.00054382 1.79671143 0.00108765 2.72229004 0.00164795 C53.80748815 0.14330574 103.22114419 18.51051227 140.92578125 53.30078125 C142.97074667 55.17621586 145.06369475 56.96532533 147.1875 58.75 C183.82366372 90.8250349 206.65125418 143.29889615 210.1875 191.375 C210.3524854 196.37495338 210.38298996 201.37276585 210.375 206.375 C210.37439575 207.07051971 210.3737915 207.76603943 210.37316895 208.4826355 C210.34926423 218.60205381 209.96779594 228.381066 208.1875 238.375 C207.91539917 240.09875873 207.64467008 241.82273432 207.375 243.546875 C201.38698185 280.42402831 185.17282415 314.78504342 161.1875 343.375 C162.79038063 347.36077229 165.57456194 350.03047812 168.57763672 352.9921875 C169.41112798 353.82612534 169.41112798 353.82612534 170.26145744 354.6769104 C172.1253273 356.53939085 173.99624714 358.39462433 175.8671875 360.25 C177.20456538 361.58353977 178.54148879 362.91753546 179.87799072 364.25195312 C182.75730571 367.12494384 185.63969953 369.99479709 188.5244751 372.86230469 C193.0841139 377.39492626 197.63613927 381.93514168 202.18701172 386.4765625 C211.84795179 396.11529042 221.51729769 405.74556593 231.1875 415.375 C241.62658976 425.77008 252.06424954 436.16657081 262.49218178 446.57284546 C267.01817332 451.08885921 271.54900077 455.59994786 276.08355713 460.10736084 C278.90125598 462.91016161 281.71482372 465.71708114 284.52727509 468.52514648 C285.83406783 469.8281889 287.14259143 471.12949809 288.45294952 472.42895508 C290.23905439 474.20066495 292.01892029 475.97841664 293.79736328 477.7578125 C294.31934233 478.27260162 294.84132137 478.78739075 295.37911797 479.31777954 C299.50427781 483.46673592 301.47254448 486.37451767 301.5 492.25 C301.39595402 496.67195427 300.75157619 499.66151035 298.1875 503.375 C294.08900272 507.16610998 290.91218031 508.52589259 285.375 508.6875 C284.54355469 508.72488281 283.71210938 508.76226562 282.85546875 508.80078125 C276.80501602 507.83518923 272.46102133 502.9363713 268.30288696 498.730896 C267.74239729 498.17211518 267.18190762 497.61333436 266.60443342 497.03762078 C264.73883465 495.17530047 262.88044641 493.30595202 261.02197266 491.43652344 C259.68163296 490.09561928 258.34085208 488.755156 256.99966431 487.4151001 C253.36754466 483.78355357 249.7416186 480.14587969 246.1167798 476.50706768 C242.32471278 472.70248657 238.52697009 468.90357957 234.72982788 465.10406494 C227.5436521 457.9116764 220.36258923 450.71420542 213.18335283 443.51489091 C205.00836215 435.31753493 196.82768245 427.12586651 188.64652181 418.93466902 C171.82051359 402.08776341 155.00165622 385.23373399 138.1875 368.375 C134.27851313 370.23564401 130.99696755 372.70481527 127.5625 375.3125 C83.72923429 407.85603229 28.27543687 423.99209955 -26.25 416.0625 C-28.72016616 415.65905977 -31.18228678 415.22904054 -33.64306641 414.77197266 C-35.58215022 414.41715043 -37.531044 414.11694387 -39.48046875 413.82421875 C-76.49548008 407.67596263 -111.22471635 388.63629568 -138.5859375 363.4140625 C-140.61967601 361.55158618 -142.70201298 359.77415443 -144.8125 358 C-180.6518563 326.62257159 -203.14085386 275.32334731 -206.8125 228.375 C-207.84587642 208.42959004 -207.99703586 187.97087524 -203.8125 168.375 C-203.64089355 167.52421875 -203.46928711 166.6734375 -203.29248047 165.796875 C-197.90517292 139.4525078 -187.54467031 113.2972875 -171.8125 91.375 C-171.13018311 90.4152124 -171.13018311 90.4152124 -170.43408203 89.43603516 C-163.79721745 80.1648254 -156.73988908 71.57073511 -148.8125 63.375 C-148.34376465 62.8804834 -147.8750293 62.3859668 -147.39208984 61.87646484 C-139.7990136 53.87225757 -131.66295811 46.95197104 -122.8125 40.375 C-121.98363281 39.75109375 -121.15476562 39.1271875 -120.30078125 38.484375 C-98.32541525 22.51585777 -73.47482354 11.56797146 -47.1875 5.125 C-46.18702637 4.87854736 -45.18655273 4.63209473 -44.15576172 4.37817383 C-29.42047557 0.91745108 -15.06664015 -0.03443684 0 0 Z M-130.38232422 89.74951172 C-139.45782463 100.0644113 -147.23721933 111.32712548 -153.8125 123.375 C-154.15619629 124.00196777 -154.49989258 124.62893555 -154.85400391 125.27490234 C-176.53510484 165.37120397 -181.58254436 214.34267416 -168.5625 258.0625 C-162.06593912 278.73477578 -153.33142786 298.27436416 -139.8125 315.375 C-139.18601563 316.20386719 -138.55953125 317.03273438 -137.9140625 317.88671875 C-109.1306763 354.77577117 -67.59848425 377.08327805 -21.8125 384.6875 C2.68172103 387.48683955 27.63548768 385.64261886 51.1875 378.375 C52.2403418 378.06006592 52.2403418 378.06006592 53.31445312 377.73876953 C64.56296413 374.35093059 74.87382431 369.9819957 85.1875 364.375 C85.80109375 364.04741699 86.4146875 363.71983398 87.046875 363.38232422 C126.42631981 342.27266991 154.03579078 306.88828457 169.1875 265.375 C169.45288574 264.65699219 169.71827148 263.93898438 169.99169922 263.19921875 C180.02300421 235.29309008 180.96411639 203.25808197 175.1875 174.375 C174.97867188 173.28832031 174.97867188 173.28832031 174.765625 172.1796875 C166.16266174 128.36830052 139.04307286 87.95442192 102.22607422 62.73339844 C72.65364394 43.02788921 38.54690492 31.91114221 2.9375 32 C1.75962418 32.00031723 1.75962418 32.00031723 0.55795288 32.00064087 C-49.68959696 32.13496367 -96.25582757 52.67153428 -130.38232422 89.74951172 Z " fill="#FFFFFF" transform="translate(208.8125,1.625)"/>
<path d="M0 0 C1.54300781 -0.02513672 1.54300781 -0.02513672 3.1171875 -0.05078125 C7.81464134 0.51657356 10.94813305 2.66341913 13.875 6.3125 C17.17181624 10.70825498 17.65864863 13.88707228 17.125 19.3125 C15.06168168 24.04656213 11.79157098 27.7464461 8.3125 31.5 C-9.82192843 51.37943947 -15.06844576 76.26703241 -13.875 102.3125 C-12.95493701 114.29022287 -9.30387333 124.66652806 -3.875 135.3125 C-3.32714844 136.3953125 -2.77929688 137.478125 -2.21484375 138.59375 C1.37030113 145.17075337 5.67654712 150.47193438 10.890625 155.83984375 C15.84071669 161.31782983 16.68779673 165.16532657 16.46484375 172.43359375 C15.99074987 176.44976835 14.98747662 178.45002338 12.125 181.3125 C6.91673118 184.97672452 2.41795397 186.11160527 -3.875 185.3125 C-10.13921841 182.67493436 -13.71935836 178.58264845 -17.875 173.3125 C-18.58785156 172.42304688 -19.30070312 171.53359375 -20.03515625 170.6171875 C-29.29001908 158.71127476 -35.696104 146.38346272 -40.875 132.3125 C-41.33519531 131.1678125 -41.33519531 131.1678125 -41.8046875 130 C-46.47362852 117.67784637 -47.14921552 104.40062776 -47.1875 91.375 C-47.19289795 90.2504541 -47.1982959 89.1259082 -47.20385742 87.96728516 C-47.14363143 80.87318667 -46.3763363 74.24010445 -44.875 67.3125 C-44.739729 66.63050537 -44.60445801 65.94851074 -44.46508789 65.24584961 C-40.66454664 46.45360473 -23.29859366 0.08715185 0 0 Z " fill="#FFFFFF" transform="translate(104.875,117.6875)"/>
</svg>
