<svg width="26" height="26" viewBox="0 0 26 26" fill="none" xmlns="http://www.w3.org/2000/svg">
<g id="Group">
<path id="Vector" d="M25.5128 10.8027L19.8857 16.2879L21.2146 24.0352C21.243 24.2013 21.2245 24.3721 21.1609 24.5282C21.0974 24.6843 20.9915 24.8196 20.8551 24.9186C20.7187 25.0177 20.5574 25.0766 20.3893 25.0888C20.2211 25.1009 20.053 25.0658 19.9038 24.9873L12.9461 21.3296L5.98929 24.9864C5.8401 25.0649 5.67195 25.1 5.50383 25.0879C5.33572 25.0757 5.17436 25.0168 5.03799 24.9177C4.90162 24.8187 4.79568 24.6834 4.73215 24.5273C4.66863 24.3712 4.65005 24.2004 4.67851 24.0343L6.00736 16.287L0.379406 10.8027C0.258606 10.685 0.173166 10.5359 0.132758 10.3721C0.0923488 10.2084 0.0985852 10.0366 0.150761 9.87621C0.202936 9.71583 0.298967 9.57325 0.427983 9.46463C0.556999 9.356 0.713847 9.28567 0.880773 9.26157L8.65783 8.13237L12.1358 1.08433C12.4402 0.467333 13.452 0.467333 13.7564 1.08433L17.2344 8.13237L25.0114 9.26157C25.178 9.2863 25.3343 9.35698 25.4629 9.46568C25.5915 9.57439 25.6872 9.7168 25.7393 9.87691C25.7914 10.037 25.7978 10.2085 25.7577 10.372C25.7177 10.5356 25.6329 10.6847 25.5128 10.8027Z" fill="#DB9824"/>
</g>
</svg>
