<svg width="26" height="26" viewBox="0 0 26 26" fill="none" xmlns="http://www.w3.org/2000/svg">
<g id="Group">
<path id="Vector" d="M19.3312 15.8283L19.0896 16.0639L19.1466 16.3965L20.4755 24.1436C20.4755 24.1436 20.4755 24.1437 20.4755 24.1437C20.4837 24.1917 20.4783 24.2411 20.4599 24.2863C20.4416 24.3315 20.4109 24.3706 20.3714 24.3993C20.3319 24.428 20.2852 24.445 20.2366 24.4485C20.1879 24.4521 20.1392 24.4419 20.0961 24.4192L20.096 24.4192L13.1383 20.7614L12.8397 20.6044L12.541 20.7614L5.58419 24.4183L5.58414 24.4183C5.54095 24.441 5.49228 24.4512 5.44362 24.4476C5.39496 24.4441 5.34825 24.4271 5.30878 24.3984C5.26931 24.3697 5.23864 24.3306 5.22026 24.2854C5.20188 24.2402 5.1965 24.1908 5.20471 24.1428C5.20472 24.1428 5.20472 24.1427 5.20473 24.1427L6.53356 16.3955L6.59062 16.0629L6.34889 15.8273L0.720936 10.343L0.720892 10.343C0.685927 10.3089 0.661196 10.2657 0.649499 10.2183C0.637803 10.1709 0.639608 10.1212 0.65471 10.0748C0.669812 10.0284 0.697608 9.98709 0.734954 9.95565C0.772297 9.92421 0.817698 9.90385 0.866014 9.89688L0.86656 9.8968L8.64361 8.76759L8.97764 8.71909L9.127 8.41642L12.6049 1.36837L12.605 1.36835C12.6236 1.33048 12.6917 1.26346 12.8396 1.26346C12.9876 1.26346 13.0556 1.33048 13.0743 1.36835L13.0743 1.36837L16.5523 8.41642L16.7017 8.71909L17.0357 8.76759L24.8107 9.8965C24.8109 9.89653 24.8111 9.89656 24.8114 9.8966C24.8596 9.90387 24.9048 9.92439 24.942 9.95587C24.9794 9.98749 25.0073 10.0289 25.0224 10.0755C25.0376 10.1221 25.0394 10.1719 25.0278 10.2195C25.0162 10.2668 24.9918 10.31 24.9572 10.3442C24.957 10.3444 24.9568 10.3446 24.9566 10.3448L19.3312 15.8283Z" stroke="#DB9824" stroke-width="1.28377"/>
</g>
</svg>
