<svg width="14" height="14" viewBox="0 0 14 14" fill="none" xmlns="http://www.w3.org/2000/svg">
<g id="Icons /lift arrow">
<path id="Vector" d="M6.58584 6.18329C6.64007 6.12862 6.70458 6.08522 6.77567 6.05561C6.84675 6.02599 6.923 6.01074 7 6.01074C7.07701 6.01074 7.15326 6.02599 7.22434 6.05561C7.29543 6.08522 7.35994 6.12862 7.41417 6.18329L10.0858 8.86079C10.1401 8.91547 10.2046 8.95886 10.2757 8.98848C10.3468 9.01809 10.423 9.03334 10.5 9.03334C10.577 9.03334 10.6533 9.01809 10.7243 8.98848C10.7954 8.95886 10.8599 8.91547 10.9142 8.86079C11.0228 8.7515 11.0838 8.60365 11.0838 8.44954C11.0838 8.29543 11.0228 8.14759 10.9142 8.03829L8.23667 5.36079C7.90855 5.03307 7.46376 4.849 7 4.849C6.53625 4.849 6.09146 5.03307 5.76334 5.36079L3.08584 8.03829C2.97807 8.14694 2.91731 8.29359 2.91667 8.44663C2.91623 8.5234 2.93094 8.5995 2.95997 8.67057C2.989 8.74164 3.03177 8.80629 3.08584 8.86079C3.14007 8.91547 3.20458 8.95886 3.27567 8.98848C3.34675 9.01809 3.423 9.03334 3.5 9.03334C3.57701 9.03334 3.65326 9.01809 3.72434 8.98848C3.79542 8.95886 3.85994 8.91547 3.91417 8.86079L6.58584 6.18329Z" fill="#43464D"/>
</g>
</svg>
