<svg width="220" height="55" viewBox="0 0 220 55" fill="none" xmlns="http://www.w3.org/2000/svg">
<path d="M40.7987 54.208C38.2067 54.064 35.6387 53.512 33.0947 52.552C30.5987 51.592 28.2707 50.464 26.1107 49.168C23.9987 47.872 22.2467 46.672 20.8547 45.568C19.2227 46.576 17.4947 47.344 15.6707 47.872C13.8467 48.448 12.1427 48.736 10.5587 48.736C10.2227 48.736 9.91069 48.712 9.62269 48.664C9.33469 48.664 9.04669 48.64 8.75869 48.592C5.92669 48.112 3.91069 47.176 2.71069 45.784C1.51069 44.392 0.910687 42.928 0.910687 41.392C0.910687 40.192 1.19869 39.04 1.77469 37.936C2.35069 36.832 3.14269 35.944 4.15069 35.272C5.15869 34.552 6.28669 34.192 7.53469 34.192C9.02269 34.192 10.6067 34.576 12.2867 35.344C14.0147 36.112 15.6467 37.048 17.1827 38.152C18.7667 39.208 20.0867 40.216 21.1427 41.176C23.4467 38.968 25.3187 36.472 26.7587 33.688C28.2467 30.904 29.7347 28.12 31.2227 25.336C28.8227 25.144 26.4947 24.568 24.2387 23.608C21.9827 22.648 20.1347 21.304 18.6947 19.576C17.2547 17.848 16.5347 15.808 16.5347 13.456C16.5347 10.816 17.1347 8.608 18.3347 6.832C19.5347 5.008 21.0227 3.64 22.7987 2.728C24.5747 1.816 26.3267 1.36 28.0547 1.36C29.8787 1.36 31.4387 1.864 32.7347 2.872C34.0787 3.88 34.7507 5.44 34.7507 7.552C34.7507 8.272 34.4867 8.632 33.9587 8.632C33.7667 8.632 33.5747 8.536 33.3827 8.344C33.2387 8.104 33.1667 7.816 33.1667 7.48C33.1667 5.944 32.6627 4.768 31.6547 3.952C30.6947 3.136 29.5187 2.728 28.1267 2.728C26.8787 2.728 25.6067 3.112 24.3107 3.88C23.0627 4.6 22.0067 5.752 21.1427 7.336C20.2787 8.872 19.8467 10.864 19.8467 13.312C19.8467 16.24 20.9507 18.688 23.1587 20.656C25.3667 22.624 28.3907 23.608 32.2307 23.608C33.6707 20.776 35.1107 18.088 36.5507 15.544C38.0387 12.952 39.5507 10.744 41.0867 8.92C43.8707 5.608 46.4867 3.376 48.9347 2.224C51.3827 1.024 53.4467 0.423999 55.1267 0.423999C56.3267 0.423999 57.3107 0.615999 58.0787 1C58.8467 1.336 59.3507 1.744 59.5907 2.224C60.1187 3.28 60.3827 4.312 60.3827 5.32C60.3827 7 59.8307 8.728 58.7267 10.504C57.6707 12.28 56.2547 13.984 54.4787 15.616C52.7027 17.248 50.7587 18.76 48.6467 20.152C46.5347 21.496 44.4467 22.624 42.3827 23.536C40.3187 24.4 38.4707 24.952 36.8387 25.192C35.0627 29.032 33.1187 32.464 31.0067 35.488C28.9427 38.512 26.6387 40.96 24.0947 42.832C25.1027 43.6 26.3027 44.416 27.6947 45.28C29.1347 46.144 30.6227 46.96 32.1587 47.728C33.6947 48.496 35.1587 49.168 36.5507 49.744C37.9427 50.32 39.1187 50.728 40.0787 50.968C40.8467 51.112 41.7347 51.256 42.7427 51.4C43.7987 51.544 44.8547 51.616 45.9107 51.616C47.7827 51.616 49.5347 51.304 51.1667 50.68C52.7987 50.104 53.8307 48.928 54.2627 47.152C54.3107 46.816 54.5747 46.648 55.0547 46.648C55.2947 46.648 55.5107 46.72 55.7027 46.864C55.8947 47.008 55.9427 47.248 55.8467 47.584C55.2227 50.08 53.5187 51.856 50.7347 52.912C47.9507 53.968 44.6387 54.4 40.7987 54.208ZM37.8467 23.032C39.5747 22.696 41.3507 22.072 43.1747 21.16C44.9987 20.2 46.7747 19.072 48.5027 17.776C50.2787 16.48 51.8627 15.112 53.2547 13.672C54.6947 12.184 55.8707 10.744 56.7827 9.352C57.4547 8.248 57.9347 7.288 58.2227 6.472C58.5587 5.656 58.7267 4.96 58.7267 4.384C58.7267 3.04 58.0307 2.368 56.6387 2.368C55.2467 2.368 53.5907 2.968 51.6707 4.168C50.0387 5.176 48.1907 6.832 46.1267 9.136C44.0627 11.44 41.9507 14.704 39.7907 18.928C39.1667 20.224 38.5187 21.592 37.8467 23.032ZM9.69469 47.224C11.2307 47.224 12.7187 46.936 14.1587 46.36C15.5987 45.784 16.9187 45.016 18.1187 44.056C16.5347 42.76 14.9507 41.536 13.3667 40.384C11.8307 39.184 10.4147 38.272 9.11869 37.648C8.59069 37.36 8.06269 37.168 7.53469 37.072C7.05469 36.928 6.62269 36.856 6.23869 36.856C5.08669 36.856 4.22269 37.264 3.64669 38.08C3.07069 38.848 2.78269 39.76 2.78269 40.816C2.78269 41.776 3.02269 42.76 3.50269 43.768C4.03069 44.776 4.79869 45.592 5.80669 46.216C6.86269 46.888 8.15869 47.224 9.69469 47.224ZM69.2831 46.432C67.9391 46.432 66.9791 45.904 66.4031 44.848C65.8271 43.792 65.5391 42.568 65.5391 41.176C65.5391 40.936 65.5391 40.672 65.5391 40.384C65.5391 40.096 65.5631 39.832 65.6111 39.592C64.6991 41.224 63.5231 42.76 62.0831 44.2C60.6431 45.64 58.8671 46.36 56.7551 46.36C55.3151 46.36 54.0911 45.832 53.0831 44.776C52.1231 43.72 51.6431 42.112 51.6431 39.952C51.6431 38.224 52.1231 36.064 53.0831 33.472C53.6111 32.224 54.3791 30.952 55.3871 29.656C56.3951 28.36 57.6191 27.28 59.0591 26.416C60.4991 25.504 62.1071 25.048 63.8831 25.048C65.8031 25.048 67.1471 25.408 67.9151 26.128C68.6831 26.848 69.1631 27.4 69.3551 27.784C69.3551 27.832 69.3551 27.88 69.3551 27.928C69.4031 27.928 69.4271 27.952 69.4271 28C69.4271 28.432 69.1631 28.648 68.6351 28.648C68.3951 28.648 68.1551 28.528 67.9151 28.288C67.3391 27.616 66.7631 27.136 66.1871 26.848C65.6111 26.56 65.0591 26.416 64.5311 26.416C63.4271 26.416 62.3951 26.896 61.4351 27.856C60.4751 28.768 59.6111 29.872 58.8431 31.168C58.1231 32.416 57.5231 33.592 57.0431 34.696C56.3711 36.232 55.8671 37.624 55.5311 38.872C55.2431 40.072 55.0991 41.08 55.0991 41.896C55.0991 44.056 55.8431 45.136 57.3311 45.136C58.3871 45.136 59.6351 44.464 61.0751 43.12C62.5151 41.776 63.8831 39.784 65.1791 37.144C66.3311 34.84 67.3631 32.8 68.2751 31.024C69.1871 29.2 69.9791 27.616 70.6511 26.272C70.7951 25.936 71.1551 25.696 71.7311 25.552C72.3071 25.36 72.8831 25.264 73.4591 25.264C73.9871 25.264 74.4671 25.36 74.8991 25.552C75.3311 25.696 75.5471 25.96 75.5471 26.344C75.5471 26.536 75.4271 26.8 75.1871 27.136C74.6111 27.952 73.8671 29.152 72.9551 30.736C72.0911 32.32 71.2751 33.976 70.5071 35.704C69.7871 37.432 69.3071 38.968 69.0671 40.312C68.9231 41.032 68.8511 41.68 68.8511 42.256C68.8511 43.792 69.3791 44.56 70.4351 44.56C70.7711 44.56 71.2991 44.44 72.0191 44.2C73.3631 43.624 74.7311 42.736 76.1231 41.536C77.5631 40.288 78.9071 38.92 80.1551 37.432C81.4511 35.944 82.5311 34.552 83.3951 33.256C83.8271 32.632 84.1631 32.32 84.4031 32.32C84.5471 32.32 84.6191 32.44 84.6191 32.68C84.6191 33.064 84.4271 33.544 84.0431 34.12C83.1791 35.416 82.0751 36.856 80.7311 38.44C79.4351 40.024 78.0191 41.488 76.4831 42.832C74.9951 44.176 73.5311 45.16 72.0911 45.784C71.0351 46.216 70.0991 46.432 69.2831 46.432ZM79.2939 47.152C80.4939 44.512 81.6939 41.8 82.8939 39.016C84.0939 36.232 85.1979 33.64 86.2059 31.24C85.5819 32.152 84.9339 33.064 84.2619 33.976C83.6379 34.888 82.9419 35.776 82.1739 36.64C81.7419 37.12 81.3579 37.36 81.0219 37.36C80.8299 37.36 80.7339 37.264 80.7339 37.072C80.7339 36.928 80.8539 36.712 81.0939 36.424C82.7739 34.264 84.1659 32.272 85.2699 30.448C86.3739 28.576 87.2139 27.184 87.7899 26.272C88.1739 25.6 88.6539 25.24 89.2299 25.192C89.8539 25.096 90.3819 25.048 90.8139 25.048C91.0059 25.048 91.3419 25.072 91.8219 25.12C92.3019 25.12 92.7819 25.12 93.2619 25.12C93.0699 25.504 92.6859 26.176 92.1099 27.136C91.5819 28.096 91.0059 29.104 90.3819 30.16C89.8059 31.216 89.3259 32.176 88.9419 33.04C89.6139 32.224 90.5499 31.072 91.7499 29.584C92.9979 28.048 94.4379 26.776 96.0699 25.768C97.6059 24.856 98.9979 24.4 100.246 24.4C102.31 24.4 103.342 25.48 103.342 27.64C103.342 28.216 103.246 28.864 103.054 29.584C102.862 30.304 102.55 31.072 102.118 31.888C101.206 33.664 100.222 35.536 99.1659 37.504C98.1579 39.424 97.4139 41.224 96.9339 42.904C96.8859 43.096 96.8379 43.264 96.7899 43.408C96.7899 43.552 96.7899 43.696 96.7899 43.84C96.7899 44.704 97.2219 45.136 98.0859 45.136C98.5659 45.136 99.1179 44.992 99.7419 44.704C101.086 44.128 102.526 43.216 104.062 41.968C105.598 40.72 107.038 39.352 108.382 37.864C109.774 36.376 110.878 35.008 111.694 33.76C111.982 33.28 112.27 33.04 112.558 33.04C112.798 33.04 112.918 33.16 112.918 33.4C112.918 33.688 112.822 33.952 112.63 34.192C111.766 35.488 110.638 36.952 109.246 38.584C107.902 40.168 106.438 41.656 104.854 43.048C103.318 44.392 101.83 45.376 100.39 46C99.3819 46.384 98.4219 46.576 97.5099 46.576C96.2619 46.576 95.1579 46.264 94.1979 45.64C93.2859 44.968 92.8299 43.984 92.8299 42.688C92.8299 42.496 92.8299 42.304 92.8299 42.112C92.8779 41.872 92.9259 41.656 92.9739 41.464C93.3579 39.688 94.1259 37.864 95.2779 35.992C96.4299 34.072 97.4859 32.224 98.4459 30.448C98.9739 29.392 99.2379 28.576 99.2379 28C99.2379 27.232 98.8539 26.848 98.0859 26.848C97.7499 26.848 97.3659 26.92 96.9339 27.064C96.5019 27.208 96.0459 27.472 95.5659 27.856C94.5579 28.528 93.5019 29.56 92.3979 30.952C91.2939 32.296 90.1659 33.952 89.0139 35.92C87.9579 37.792 86.9739 39.664 86.0619 41.536C85.1499 43.408 84.4059 44.968 83.8299 46.216C83.1099 46.216 82.2699 46.336 81.3099 46.576C80.3979 46.816 79.7259 47.008 79.2939 47.152ZM114.821 46.72C113.237 46.72 111.917 46.24 110.861 45.28C109.805 44.272 109.277 42.976 109.277 41.392C109.277 40.576 109.421 39.736 109.709 38.872C110.669 36.232 111.797 33.496 113.093 30.664C114.389 27.784 115.781 24.976 117.269 22.24H114.821C113.765 22.24 113.237 22.024 113.237 21.592C113.237 21.352 113.381 21.16 113.669 21.016C114.005 20.824 114.389 20.728 114.821 20.728C115.301 20.68 115.805 20.68 116.333 20.728C116.861 20.728 117.437 20.728 118.061 20.728L124.253 9.352C124.445 8.968 124.877 8.728 125.549 8.632C126.269 8.488 126.797 8.416 127.133 8.416C127.661 8.416 128.165 8.536 128.645 8.776C129.173 9.016 129.341 9.28 129.149 9.568C129.005 9.76 128.693 10.288 128.213 11.152C127.781 12.016 127.253 13.024 126.629 14.176C126.005 15.328 125.357 16.504 124.685 17.704C124.061 18.856 123.509 19.864 123.029 20.728H126.125C127.325 20.728 128.597 20.728 129.941 20.728C131.333 20.68 132.581 20.608 133.685 20.512C134.789 20.416 135.509 20.296 135.845 20.152C136.133 20.008 136.421 19.936 136.709 19.936C137.189 19.936 137.429 20.128 137.429 20.512C137.429 20.944 137.093 21.352 136.421 21.736C135.941 21.976 135.005 22.144 133.613 22.24C132.221 22.288 130.613 22.312 128.789 22.312H126.341C125.717 22.312 125.045 22.312 124.325 22.312C123.605 22.264 122.909 22.24 122.237 22.24C120.653 25.168 119.021 28.072 117.341 30.952C115.709 33.784 114.389 36.808 113.381 40.024C113.093 40.936 112.949 41.752 112.949 42.472C112.949 44.2 113.717 45.064 115.253 45.064C116.021 45.064 116.981 44.776 118.133 44.2C120.245 43.144 122.309 41.632 124.325 39.664C126.341 37.696 128.093 35.656 129.581 33.544C129.821 33.16 130.085 32.968 130.373 32.968C130.565 32.968 130.661 33.088 130.661 33.328C130.661 33.568 130.565 33.856 130.373 34.192C128.837 36.496 127.133 38.608 125.261 40.528C123.437 42.448 121.349 44.104 118.997 45.496C117.509 46.312 116.117 46.72 114.821 46.72ZM145.572 46.432C144.228 46.432 143.268 45.904 142.692 44.848C142.116 43.792 141.828 42.568 141.828 41.176C141.828 40.936 141.828 40.672 141.828 40.384C141.828 40.096 141.852 39.832 141.9 39.592C140.988 41.224 139.812 42.76 138.372 44.2C136.932 45.64 135.156 46.36 133.044 46.36C131.604 46.36 130.38 45.832 129.372 44.776C128.412 43.72 127.932 42.112 127.932 39.952C127.932 38.224 128.412 36.064 129.372 33.472C129.9 32.224 130.668 30.952 131.676 29.656C132.684 28.36 133.908 27.28 135.348 26.416C136.788 25.504 138.396 25.048 140.172 25.048C142.092 25.048 143.436 25.408 144.204 26.128C144.972 26.848 145.452 27.4 145.644 27.784C145.644 27.832 145.644 27.88 145.644 27.928C145.692 27.928 145.716 27.952 145.716 28C145.716 28.432 145.452 28.648 144.924 28.648C144.684 28.648 144.444 28.528 144.204 28.288C143.628 27.616 143.052 27.136 142.476 26.848C141.9 26.56 141.348 26.416 140.82 26.416C139.716 26.416 138.684 26.896 137.724 27.856C136.764 28.768 135.9 29.872 135.132 31.168C134.412 32.416 133.812 33.592 133.332 34.696C132.66 36.232 132.156 37.624 131.82 38.872C131.532 40.072 131.388 41.08 131.388 41.896C131.388 44.056 132.132 45.136 133.62 45.136C134.676 45.136 135.924 44.464 137.364 43.12C138.804 41.776 140.172 39.784 141.468 37.144C142.62 34.84 143.652 32.8 144.564 31.024C145.476 29.2 146.268 27.616 146.94 26.272C147.084 25.936 147.444 25.696 148.02 25.552C148.596 25.36 149.172 25.264 149.748 25.264C150.276 25.264 150.756 25.36 151.188 25.552C151.62 25.696 151.836 25.96 151.836 26.344C151.836 26.536 151.716 26.8 151.476 27.136C150.9 27.952 150.156 29.152 149.244 30.736C148.38 32.32 147.564 33.976 146.796 35.704C146.076 37.432 145.596 38.968 145.356 40.312C145.212 41.032 145.14 41.68 145.14 42.256C145.14 43.792 145.668 44.56 146.724 44.56C147.06 44.56 147.588 44.44 148.308 44.2C149.652 43.624 151.02 42.736 152.412 41.536C153.852 40.288 155.196 38.92 156.444 37.432C157.74 35.944 158.82 34.552 159.684 33.256C160.116 32.632 160.452 32.32 160.692 32.32C160.836 32.32 160.908 32.44 160.908 32.68C160.908 33.064 160.716 33.544 160.332 34.12C159.468 35.416 158.364 36.856 157.02 38.44C155.724 40.024 154.308 41.488 152.772 42.832C151.284 44.176 149.82 45.16 148.38 45.784C147.324 46.216 146.388 46.432 145.572 46.432ZM155.583 47.152C156.783 44.512 157.983 41.8 159.183 39.016C160.383 36.232 161.487 33.64 162.495 31.24C161.871 32.152 161.223 33.064 160.551 33.976C159.927 34.888 159.231 35.776 158.463 36.64C158.031 37.12 157.647 37.36 157.311 37.36C157.119 37.36 157.023 37.264 157.023 37.072C157.023 36.928 157.143 36.712 157.383 36.424C159.063 34.264 160.455 32.272 161.559 30.448C162.663 28.576 163.503 27.184 164.079 26.272C164.463 25.6 164.943 25.24 165.519 25.192C166.143 25.096 166.671 25.048 167.103 25.048C167.295 25.048 167.631 25.072 168.111 25.12C168.591 25.12 169.071 25.12 169.551 25.12C169.359 25.504 168.975 26.176 168.399 27.136C167.871 28.096 167.295 29.104 166.671 30.16C166.095 31.216 165.615 32.176 165.231 33.04C165.903 32.224 166.839 31.072 168.039 29.584C169.287 28.048 170.727 26.776 172.359 25.768C173.895 24.856 175.287 24.4 176.535 24.4C178.599 24.4 179.631 25.48 179.631 27.64C179.631 28.216 179.535 28.864 179.343 29.584C179.151 30.304 178.839 31.072 178.407 31.888C177.495 33.664 176.511 35.536 175.455 37.504C174.447 39.424 173.703 41.224 173.223 42.904C173.175 43.096 173.127 43.264 173.079 43.408C173.079 43.552 173.079 43.696 173.079 43.84C173.079 44.704 173.511 45.136 174.375 45.136C174.855 45.136 175.407 44.992 176.031 44.704C177.375 44.128 178.815 43.216 180.351 41.968C181.887 40.72 183.327 39.352 184.671 37.864C186.063 36.376 187.167 35.008 187.983 33.76C188.271 33.28 188.559 33.04 188.847 33.04C189.087 33.04 189.207 33.16 189.207 33.4C189.207 33.688 189.111 33.952 188.919 34.192C188.055 35.488 186.927 36.952 185.535 38.584C184.191 40.168 182.727 41.656 181.143 43.048C179.607 44.392 178.119 45.376 176.679 46C175.671 46.384 174.711 46.576 173.799 46.576C172.551 46.576 171.447 46.264 170.487 45.64C169.575 44.968 169.119 43.984 169.119 42.688C169.119 42.496 169.119 42.304 169.119 42.112C169.167 41.872 169.215 41.656 169.263 41.464C169.647 39.688 170.415 37.864 171.567 35.992C172.719 34.072 173.775 32.224 174.735 30.448C175.263 29.392 175.527 28.576 175.527 28C175.527 27.232 175.143 26.848 174.375 26.848C174.039 26.848 173.655 26.92 173.223 27.064C172.791 27.208 172.335 27.472 171.855 27.856C170.847 28.528 169.791 29.56 168.687 30.952C167.583 32.296 166.455 33.952 165.303 35.92C164.247 37.792 163.263 39.664 162.351 41.536C161.439 43.408 160.695 44.968 160.119 46.216C159.399 46.216 158.559 46.336 157.599 46.576C156.687 46.816 156.015 47.008 155.583 47.152ZM204.143 46.432C202.799 46.432 201.839 45.904 201.263 44.848C200.687 43.792 200.399 42.568 200.399 41.176C200.399 40.936 200.399 40.672 200.399 40.384C200.399 40.096 200.423 39.832 200.471 39.592C199.559 41.224 198.383 42.76 196.943 44.2C195.503 45.64 193.727 46.36 191.615 46.36C190.175 46.36 188.951 45.832 187.943 44.776C186.983 43.72 186.503 42.112 186.503 39.952C186.503 38.224 186.983 36.064 187.943 33.472C188.471 32.224 189.239 30.952 190.247 29.656C191.255 28.36 192.479 27.28 193.919 26.416C195.359 25.504 196.967 25.048 198.743 25.048C200.663 25.048 202.007 25.408 202.775 26.128C203.543 26.848 204.023 27.4 204.215 27.784C204.215 27.832 204.215 27.88 204.215 27.928C204.263 27.928 204.287 27.952 204.287 28C204.287 28.432 204.023 28.648 203.495 28.648C203.255 28.648 203.015 28.528 202.775 28.288C202.199 27.616 201.623 27.136 201.047 26.848C200.471 26.56 199.919 26.416 199.391 26.416C198.287 26.416 197.255 26.896 196.295 27.856C195.335 28.768 194.471 29.872 193.703 31.168C192.983 32.416 192.383 33.592 191.903 34.696C191.231 36.232 190.727 37.624 190.391 38.872C190.103 40.072 189.959 41.08 189.959 41.896C189.959 44.056 190.703 45.136 192.191 45.136C193.247 45.136 194.495 44.464 195.935 43.12C197.375 41.776 198.743 39.784 200.039 37.144C201.191 34.84 202.223 32.8 203.135 31.024C204.047 29.2 204.839 27.616 205.511 26.272C205.655 25.936 206.015 25.696 206.591 25.552C207.167 25.36 207.743 25.264 208.319 25.264C208.847 25.264 209.327 25.36 209.759 25.552C210.191 25.696 210.407 25.96 210.407 26.344C210.407 26.536 210.287 26.8 210.047 27.136C209.471 27.952 208.727 29.152 207.815 30.736C206.951 32.32 206.135 33.976 205.367 35.704C204.647 37.432 204.167 38.968 203.927 40.312C203.783 41.032 203.711 41.68 203.711 42.256C203.711 43.792 204.239 44.56 205.295 44.56C205.631 44.56 206.159 44.44 206.879 44.2C208.223 43.624 209.591 42.736 210.983 41.536C212.423 40.288 213.767 38.92 215.015 37.432C216.311 35.944 217.391 34.552 218.255 33.256C218.687 32.632 219.023 32.32 219.263 32.32C219.407 32.32 219.479 32.44 219.479 32.68C219.479 33.064 219.287 33.544 218.903 34.12C218.039 35.416 216.935 36.856 215.591 38.44C214.295 40.024 212.879 41.488 211.343 42.832C209.855 44.176 208.391 45.16 206.951 45.784C205.895 46.216 204.959 46.432 204.143 46.432Z" fill="#634024"/>
</svg>
