<?xml version="1.0" encoding="UTF-8"?>
<svg version="1.1" xmlns="http://www.w3.org/2000/svg" width="512" height="512">
<path d="M0 0 C1.82765042 0.84926676 3.65536945 1.69838588 5.4831543 2.54736328 C17.82614954 8.28384347 30.15445087 14.05157489 42.47460938 19.83691406 C50.9739828 23.82769059 59.4824956 27.79801602 68 31.75 C69.13187744 32.27537354 70.26375488 32.80074707 71.42993164 33.34204102 C76.71422105 35.79353107 82.0001948 38.24129834 87.28961182 40.68170166 C94.78672005 44.14086833 102.27257021 47.62345147 109.75 51.125 C111.02713867 51.71837158 111.02713867 51.71837158 112.33007812 52.32373047 C136.44485259 63.58102903 154.23962198 81.13126264 163.75 106.125 C167.99048462 119.07981385 168.90197405 131.38270778 168.91113281 144.90991211 C168.91576772 146.50910556 168.92079328 148.10829791 168.92617798 149.70748901 C168.93924306 154.03653067 168.9457359 158.36555685 168.95018864 162.69461513 C168.95313017 165.40711022 168.95723706 168.11960119 168.96169281 170.83209419 C168.97535502 179.34143933 168.98502674 187.85077491 168.9888947 196.36013025 C168.99336617 206.1401786 169.010877 215.92008655 169.0398953 225.70009226 C169.06161419 233.28687122 169.07160447 240.87361099 169.07293582 248.46042067 C169.07397698 252.97859683 169.07973579 257.49664079 169.09775543 262.01478386 C169.11441271 266.27401793 169.11630748 270.53302296 169.10761642 274.79227829 C169.10685526 276.34126849 169.11106436 277.89027192 169.12107468 279.43922997 C169.29206722 307.58654112 160.83246387 332.01174774 141.5 352.8125 C129.55650997 363.96158358 115.48392583 370.45114003 100.75 377.125 C99.51554991 377.68828112 98.28134461 378.25209896 97.04736328 378.81640625 C90.19576959 381.94965032 83.33730363 385.06733868 76.47265625 388.171875 C70.68142701 390.79135084 64.89768605 393.42652755 59.12109375 396.078125 C42.63116935 403.64554408 26.10417046 411.11742827 9.50830078 418.44995117 C1.75925678 421.87688529 -5.95502791 425.3603289 -13.63110352 428.94824219 C-22.35261494 433.01953484 -30.8270804 436.96475261 -40.25 439.125 C-41.17683594 439.34542969 -42.10367188 439.56585938 -43.05859375 439.79296875 C-70.1129913 445.26258237 -93.96999515 436.22723442 -118.12094116 424.89544678 C-120.64488042 423.71135158 -123.17218232 422.53470871 -125.70043945 421.35986328 C-129.19473149 419.73593913 -132.68804387 418.10993835 -136.18066406 416.48242188 C-143.75224195 412.95766607 -151.34232877 409.47356766 -158.9375 406 C-160.00417908 405.51167694 -160.00417908 405.51167694 -161.09240723 405.01348877 C-171.37847967 400.30730378 -181.70362586 395.69505483 -192.05072021 391.12481689 C-204.27285452 385.72203788 -216.47477739 380.27458547 -228.59689331 374.65039062 C-230.04627153 373.97961325 -231.49748366 373.3127808 -232.95071411 372.65039062 C-257.39492676 361.4908495 -276.3452758 343.65292598 -286.0625 318.3125 C-290.44025497 304.81590834 -291.69987073 291.41991678 -291.63818359 277.31835938 C-291.64226352 275.71783595 -291.64761325 274.11731535 -291.65411377 272.51679993 C-291.66762463 268.22540754 -291.66255696 263.93423496 -291.65297651 259.64283943 C-291.64529459 255.11715294 -291.65244889 250.59148325 -291.65713501 246.0657959 C-291.66256803 238.47075071 -291.65546585 230.8757935 -291.64111328 223.28076172 C-291.62479154 214.54369285 -291.63008179 205.80683413 -291.6465925 197.06977034 C-291.6602778 189.52101091 -291.66209285 181.97231415 -291.65427649 174.42354631 C-291.64963842 169.93570552 -291.64886696 165.44796297 -291.65888596 160.96012878 C-291.66765682 156.7376813 -291.66135261 152.51550045 -291.64420319 148.29308128 C-291.64029163 146.75860724 -291.64127868 145.22411011 -291.64799118 143.68964577 C-291.74738725 118.62549205 -285.30497876 95.20292332 -268.25 76.125 C-267.15945313 74.89330078 -267.15945313 74.89330078 -266.046875 73.63671875 C-255.0905654 61.97296532 -241.33841705 54.77894724 -226.9375 48.25 C-225.43794418 47.55860795 -223.93892936 46.86604143 -222.44042969 46.17236328 C-218.72988073 44.457743 -215.01328102 42.75674731 -211.2946167 41.05981445 C-208.29766924 39.68958707 -205.30691014 38.30609883 -202.31640625 36.921875 C-198.12205099 34.98072547 -193.92538082 33.04475722 -189.7265625 31.11328125 C-182.59774673 27.82955267 -175.48592731 24.50971324 -168.375 21.1875 C-167.1031248 20.59355281 -165.83123353 19.99964003 -164.55932617 19.40576172 C-163.93087296 19.11231873 -163.30241974 18.81887573 -162.65492249 18.51654053 C-162.02758713 18.22362122 -161.40025177 17.9307019 -160.75390625 17.62890625 C-159.491047 17.03922777 -158.22818893 16.4495468 -156.96533203 15.85986328 C-156.3474884 15.57137512 -155.72964478 15.28288696 -155.09307861 14.98565674 C-153.29359721 14.14535846 -151.49420955 13.30485945 -149.69482422 12.46435547 C-142.17774053 8.95525803 -134.65344999 5.46218074 -127.12011719 1.98809814 C-125.15365136 1.08053309 -123.18814749 0.17090404 -121.22265625 -0.73876953 C-117.76290595 -2.33862018 -114.29874947 -3.92860506 -110.83175659 -5.51269531 C-109.51189933 -6.11718024 -108.19325814 -6.72432935 -106.87600708 -7.33447266 C-67.53197899 -25.54155287 -37.62797162 -17.52742066 0 0 Z M-108.8125 30.375 C-111.12563498 31.47362468 -113.43915315 32.57141577 -115.75364685 33.66717529 C-117.18128875 34.34319351 -118.60813656 35.02089203 -120.03407288 35.70050049 C-122.75038064 36.98773458 -125.39498273 38.17332758 -128.25 39.125 C-128.25 39.785 -128.25 40.445 -128.25 41.125 C-123.83044809 43.34749944 -119.40936403 45.56691619 -114.98706055 47.78393555 C-113.49481243 48.53251526 -112.00292832 49.2818212 -110.51147461 50.03198242 C-100.48645374 55.07346691 -90.40539128 59.98227956 -80.2743988 64.8072052 C-69.84114297 69.78266429 -59.46743692 74.87750623 -49.09558105 79.97943115 C-43.28905729 82.83544763 -37.48042552 85.68717087 -31.671875 88.5390625 C-30.51778137 89.10577667 -29.36368774 89.67249084 -28.17462158 90.25637817 C-21.3132074 93.62463211 -14.44861656 96.98623744 -7.578125 100.3359375 C-6.76488266 100.7324501 -5.95164032 101.12896271 -5.11375427 101.53749084 C-1.20511509 103.44200619 2.70542181 105.34250069 6.61889648 107.23706055 C14.1596892 110.89107417 21.67943673 114.5798906 29.16146851 118.35308838 C32.95374973 120.26346852 36.75324104 122.1592539 40.55334473 124.05401611 C42.37640719 124.96812833 44.19592001 125.88935829 46.01159668 126.8180542 C48.52125837 128.10117939 51.04198286 129.3595106 53.56640625 130.61328125 C54.3082869 131.00067978 55.05016754 131.38807831 55.81452942 131.78721619 C59.32017756 133.4995576 60.99737323 134.27212568 64.91723633 133.50585938 C65.85204834 133.05017578 66.78686035 132.59449219 67.75 132.125 C68.64605957 131.72434326 69.54211914 131.32368652 70.46533203 130.91088867 C71.38685059 130.4594751 72.30836914 130.00806152 73.2578125 129.54296875 C74.31427979 129.02895508 75.37074707 128.51494141 76.45922852 127.98535156 C77.58643311 127.43331055 78.7136377 126.88126953 79.875 126.3125 C82.28175231 125.14283859 84.68901949 123.97435815 87.09765625 122.80859375 C87.71762985 122.50841339 88.33760345 122.20823303 88.97636414 121.8989563 C99.38138572 116.87435797 109.88779217 112.06221997 120.38110352 107.22558594 C121.84654925 106.54474193 123.30470979 105.84764511 124.75 105.125 C120.40831608 92.47652287 106.7043342 86.52887985 95.47167969 80.98901367 C90.83499596 78.74043986 86.16885434 76.55576476 81.5 74.375 C79.7983995 73.57518077 78.09698593 72.77496376 76.39575195 71.97436523 C65.2206787 66.72183532 54.02156119 61.52133451 42.80078125 56.3671875 C34.62552079 52.61180159 26.46151062 48.83218385 18.29837036 45.05053711 C15.63807078 43.81855307 12.97714148 42.58793682 10.31616211 41.35742188 C2.0122041 37.51421547 -6.27961074 33.64898098 -14.5390625 29.7109375 C-15.98806963 29.02243948 -17.43712444 28.33404179 -18.88623047 27.64575195 C-21.53322939 26.38825936 -24.17458108 25.11988291 -26.81298828 23.84448242 C-58.16149107 8.9421736 -79.22549236 16.30362936 -108.8125 30.375 Z M-174.9375 60.71875 C-175.90828491 61.16553101 -175.90828491 61.16553101 -176.89868164 61.62133789 C-179.02436218 62.60523875 -181.136956 63.6142796 -183.25 64.625 C-184.72338014 65.31568787 -186.19734616 66.00512724 -187.671875 66.69335938 C-190.70585629 68.11399394 -193.73391111 69.54631929 -196.7578125 70.98828125 C-200.34531029 72.69856402 -203.94314389 74.38515243 -207.546875 76.06091309 C-210.16659185 77.28144856 -212.78088918 78.51323139 -215.39355469 79.7487793 C-217.20002003 80.60141003 -219.01012061 81.44632543 -220.8203125 82.29101562 C-230.30143178 86.83909314 -239.66444056 92.71665179 -246.25 101.125 C-246.61631156 102.44965268 -246.95401806 103.78288094 -247.25 105.125 C-233.67376452 111.71270044 -220.07726295 118.24025172 -206.375 124.5625 C-196.17246011 129.27130977 -186.03500996 134.10126857 -175.92779541 139.00997925 C-167.0766821 143.30624898 -158.18426722 147.50380603 -149.25 151.625 C-139.70220109 156.02920354 -130.2078867 160.5318902 -120.75 165.125 C-108.70781974 170.97216062 -96.59937048 176.65997042 -84.4375 182.25390625 C-80.72465844 183.96462612 -77.03480622 185.70598433 -73.375 187.52734375 C-72.68132324 187.86838135 -71.98764648 188.20941895 -71.27294922 188.56079102 C-69.55369629 189.41157131 -67.84273436 190.27905554 -66.1328125 191.1484375 C-60.84695603 192.93903929 -56.42208894 190.96402728 -51.55859375 188.67578125 C-50.46385742 188.16450684 -49.36912109 187.65323242 -48.24121094 187.12646484 C-47.06848633 186.56910645 -45.89576172 186.01174805 -44.6875 185.4375 C-43.44456855 184.85318332 -42.20139977 184.26937126 -40.95800781 183.68603516 C-31.50142347 179.23806042 -22.09383161 174.68750532 -12.6932373 170.12265015 C-0.631628 164.26590148 11.53166671 158.64626953 23.75 153.125 C21.33772753 150.40243523 18.82517018 148.98215757 15.578125 147.375 C14.51851563 146.84777344 13.45890625 146.32054687 12.3671875 145.77734375 C11.25601562 145.23207031 10.14484375 144.68679687 9 144.125 C7.96617187 143.61066406 6.93234375 143.09632813 5.8671875 142.56640625 C-1.39961237 138.96752793 -8.71170171 135.4666849 -16.03125 131.9765625 C-27.6066677 126.45510733 -39.12373815 120.81842094 -50.63128662 115.15713501 C-56.45848001 112.29062632 -62.28777176 109.42839219 -68.1171875 106.56640625 C-69.26353668 106.0035643 -70.40988586 105.44072235 -71.5909729 104.86082458 C-81.42193283 100.0361458 -91.26796354 95.24317331 -101.12371826 90.46939087 C-110.3126241 86.0183177 -119.4890062 81.54241719 -128.65625 77.046875 C-129.7291629 76.52091232 -130.80207581 75.99494965 -131.90750122 75.45304871 C-137.23358563 72.84186886 -142.558687 70.22871432 -147.88232422 67.61254883 C-149.8251604 66.65959679 -151.7680299 65.70671267 -153.7109375 64.75390625 C-154.60196167 64.31516174 -155.49298584 63.87641724 -156.41101074 63.42437744 C-158.01793542 62.63715534 -159.62895185 61.85819713 -161.24505615 61.08999634 C-162.82787144 60.32817403 -164.3838219 59.51054501 -165.92822266 58.67358398 C-169.52728445 57.82320629 -171.63702929 59.17017931 -174.9375 60.71875 Z M-258.25 136.125 C-258.32025706 156.22305998 -258.37306968 176.32109484 -258.40543652 196.4192524 C-258.42086823 205.75236251 -258.44188661 215.08539607 -258.47631836 224.41845703 C-258.50633438 232.55851193 -258.52560182 240.69851135 -258.53226548 248.83862007 C-258.53615718 253.14388838 -258.54522504 257.44899805 -258.56719017 261.75421524 C-258.58774873 265.81715757 -258.59379525 269.87987787 -258.58932304 273.94286728 C-258.59013968 275.42377688 -258.59598893 276.90469491 -258.60761642 278.38555908 C-258.75045957 297.53831421 -254.64687123 313.90889564 -241.25 328.125 C-236.08586802 333.15909988 -230.44015735 336.7095439 -223.984375 339.8671875 C-222.93953949 340.38345703 -222.93953949 340.38345703 -221.87359619 340.91015625 C-213.98005524 344.78717477 -205.99781904 348.46932259 -198 352.125 C-196.81247131 352.66957855 -196.81247131 352.66957855 -195.60095215 353.22515869 C-183.21104919 358.90681331 -170.77037207 364.46748248 -158.30038452 369.97073364 C-145.7345208 375.52017276 -133.26380179 381.26109006 -120.8125 387.0625 C-104.66342613 394.59160039 -104.66342613 394.59160039 -88.375 401.8125 C-87.55588135 402.16884521 -86.7367627 402.52519043 -85.89282227 402.89233398 C-82.85576363 404.18024119 -80.58367059 405.125 -77.25 405.125 C-77.25 344.735 -77.25 284.345 -77.25 222.125 C-86.58929181 217.14404437 -95.77199935 212.36448767 -105.375 208 C-107.82641509 206.87428265 -110.27715844 205.74725907 -112.7265625 204.6171875 C-113.34762878 204.33083435 -113.96869507 204.0444812 -114.60858154 203.74945068 C-121.36332153 200.62573619 -128.0570868 197.37851516 -134.75 194.125 C-144.207313 189.53074074 -153.70223125 185.02918962 -163.25 180.625 C-172.79779535 176.22079811 -182.29217935 171.71824162 -191.75 167.125 C-202.47985714 161.91435931 -213.26197143 156.83522279 -224.09301758 151.8371582 C-232.90575601 147.76591597 -241.67131403 143.60275805 -250.40966797 139.37426758 C-251.29928223 138.94525146 -252.18889648 138.51623535 -253.10546875 138.07421875 C-253.88559326 137.69612061 -254.66571777 137.31802246 -255.46948242 136.9284668 C-257.07634756 136.05644742 -257.07634756 136.05644742 -258.25 136.125 Z M129.29296875 138.73046875 C127.55176758 139.57738281 127.55176758 139.57738281 125.77539062 140.44140625 C124.8391687 140.89797607 124.8391687 140.89797607 123.8840332 141.36376953 C113.22190577 146.56043669 102.52214075 151.65980646 91.75 156.625 C82.20206977 161.0288981 72.7077666 165.53166197 63.25 170.125 C52.64256047 175.2766978 41.97774098 180.29099154 31.26953125 185.23046875 C22.28002958 189.38798744 13.35671455 193.67270289 4.44839478 198.00018311 C-6.00214929 203.07413818 -16.51408235 208.00474193 -27.06640625 212.86328125 C-28.154375 213.36472656 -29.24234375 213.86617188 -30.36328125 214.3828125 C-31.30985596 214.8173877 -32.25643066 215.25196289 -33.23168945 215.69970703 C-36.93356355 217.44778929 -40.58834317 219.29417158 -44.25 221.125 C-44.25 281.845 -44.25 342.565 -44.25 405.125 C-38.55670263 403.22723421 -33.35921904 401.41094703 -27.9375 399 C-27.26328003 398.70105835 -26.58906006 398.4021167 -25.89440918 398.09411621 C-23.67750109 397.10906145 -21.46365388 396.11734393 -19.25 395.125 C-17.66341629 394.41730688 -16.07682763 393.70962485 -14.49023438 393.00195312 C-1.6559109 387.26274813 11.09875992 381.35549628 23.84188843 375.41717529 C35.28203149 370.08742212 46.75643773 364.85038395 58.30053711 359.74954224 C64.09928503 357.18712466 69.89296036 354.61322282 75.68707275 352.04034424 C77.05812866 351.43199117 78.42950563 350.82436117 79.8012085 350.21746826 C84.29417168 348.22914312 88.77433689 346.21447662 93.25 344.1875 C94.34675049 343.7042627 95.44350098 343.22102539 96.57348633 342.72314453 C112.33436174 335.51740393 125.41574077 324.42667191 131.9765625 308.06640625 C134.60659929 300.48849449 135.87673619 293.40460944 135.87025452 285.3608551 C135.87110894 284.71783996 135.87196337 284.07482482 135.87284368 283.41232437 C135.8744783 281.27819029 135.8690105 279.14413649 135.86352539 277.01000977 C135.86324306 275.472051 135.86340216 273.93409211 135.8639679 272.39613342 C135.86425406 268.23551171 135.85838648 264.07491901 135.85139394 259.91430402 C135.84513038 255.56078569 135.84455423 251.20726665 135.84336853 246.85374451 C135.84026406 238.61621724 135.8320626 230.37870329 135.82201904 222.14118189 C135.81083043 212.76030507 135.80534053 203.3794276 135.80032361 193.99854577 C135.78987924 174.7073563 135.77229694 155.41617922 135.75 136.125 C133.56723456 136.125 131.17842034 137.80961202 129.29296875 138.73046875 Z " fill="#634024" transform="translate(317.25,44.875)"/>
<path d="M0 0 C0.89769608 0.40986649 1.79539215 0.81973297 2.72029114 1.24201965 C4.60273319 2.10588377 6.48070896 2.97954227 8.35424805 3.86254883 C11.2016489 5.20449461 14.0608762 6.51777953 16.92382812 7.82617188 C18.76247174 8.67415046 20.60038836 9.52370753 22.4375 10.375 C23.28040085 10.76479538 24.1233017 11.15459076 24.991745 11.55619812 C40.56673536 18.91085707 40.56673536 18.91085707 43.01953125 25.01953125 C43.84418855 30.53953463 43.76778181 35.46760415 41.33203125 40.51953125 C40.56890625 41.34453125 39.80578125 42.16953125 39.01953125 43.01953125 C38.31828125 43.78265625 37.61703125 44.54578125 36.89453125 45.33203125 C32.56878147 47.8710583 28.99763623 48.32456522 24.01953125 48.01953125 C13.86093042 45.01760661 4.07124305 40.04618338 -5.54956055 35.65380859 C-8.06482107 34.5095904 -10.58788202 33.3838415 -13.11132812 32.2578125 C-14.7257714 31.52325746 -16.33972258 30.78761967 -17.953125 30.05078125 C-18.70102798 29.7204187 -19.44893097 29.39005615 -20.21949768 29.04968262 C-25.89567179 26.41813172 -29.65770706 22.99067116 -31.98046875 17.01953125 C-32.67226229 12.21719701 -32.62809212 7.53632147 -30.41796875 3.14453125 C-22.25095423 -7.32600018 -10.80757204 -5.16489166 0 0 Z " fill="#634024" transform="translate(164.98046875,341.98046875)"/>
</svg>
