<?xml version="1.0" encoding="UTF-8"?>
<svg version="1.1" xmlns="http://www.w3.org/2000/svg" width="512" height="512">
<path d="M0 0 C2.4326433 1.91056917 4.75364666 3.90013189 7.06640625 5.953125 C7.73671875 6.48164063 8.40703125 7.01015625 9.09765625 7.5546875 C25.18711964 20.51564412 34.83001881 40.85013325 38.06640625 60.953125 C38.78124873 69.00048614 38.54722614 77.07333871 38.37890625 85.140625 C38.35374601 87.27015557 38.33094673 89.39971538 38.31054688 91.52929688 C38.25627034 96.67131545 38.17044111 101.81188246 38.06640625 106.953125 C38.76638733 106.94424255 39.46636841 106.93536011 40.18756104 106.9262085 C46.83544098 106.84553263 53.48318118 106.78489461 60.13144302 106.74587631 C63.54813032 106.72514099 66.96440783 106.69708738 70.38085938 106.65136719 C74.32286402 106.59895353 78.26471194 106.58006364 82.20703125 106.5625 C84.01714691 106.53153229 84.01714691 106.53153229 85.86383057 106.49993896 C98.9707078 106.49652613 109.24172906 110.24594664 119.06640625 118.953125 C128.1970022 128.2218018 131.14240199 138.54292869 132.5390625 151.1015625 C132.66456985 152.18956146 132.79007721 153.27756042 132.91938782 154.39852905 C134.25813394 166.23362282 135.36759488 178.09038993 136.42895508 189.953125 C136.7593191 193.63850813 137.09711607 197.32316224 137.43554688 201.0078125 C137.65017339 203.37756492 137.86438229 205.7473552 138.078125 208.1171875 C138.17808273 209.20569 138.27804047 210.2941925 138.38102722 211.41567993 C138.8422592 216.6182492 139.1832847 221.7300906 139.06640625 226.953125 C140.46439453 226.86611328 140.46439453 226.86611328 141.890625 226.77734375 C154.31550073 226.33763632 164.42749729 228.88748484 174.140625 237.14453125 C181.57286306 244.1245033 188.38456033 253.74006132 189.25488281 264.22338867 C189.3346589 266.8239378 189.33924409 269.41401441 189.31640625 272.015625 C189.32414062 272.90056641 189.331875 273.78550781 189.33984375 274.69726562 C189.33597656 275.98600586 189.33597656 275.98600586 189.33203125 277.30078125 C189.32977539 278.07429932 189.32751953 278.84781738 189.32519531 279.64477539 C189.02316037 282.33887007 188.16456288 284.48608942 187.06640625 286.953125 C188.19115356 286.91384888 188.19115356 286.91384888 189.33862305 286.8737793 C222.11304188 285.87893603 222.11304188 285.87893603 236.06640625 298.953125 C242.72009458 305.24925531 248.58801837 314.84421664 249.21357727 324.1401062 C249.22834358 325.32541428 249.22834358 325.32541428 249.2434082 326.53466797 C249.25624344 327.43595428 249.26907867 328.3372406 249.28230286 329.26583862 C249.29338326 330.71592819 249.29338326 330.71592819 249.3046875 332.1953125 C249.31275925 333.19644073 249.32083099 334.19756897 249.32914734 335.22903442 C249.34296504 337.3455432 249.35369752 339.46207405 249.36157227 341.57861328 C249.37880609 344.80934874 249.42271597 348.03906614 249.46679688 351.26953125 C249.47692265 353.32811749 249.48543911 355.38671241 249.4921875 357.4453125 C249.50969559 358.40799042 249.52720367 359.37066833 249.54524231 360.36251831 C249.52691423 366.04838591 249.04051774 369.55329164 245.06640625 373.953125 C240.28108086 377.95844774 235.16367711 377.29541416 229.25390625 377.140625 C228.27486328 377.12708984 227.29582031 377.11355469 226.28710938 377.09960938 C223.87964 377.06437812 221.47331061 377.01511765 219.06640625 376.953125 C219.07009342 377.51965853 219.07378059 378.08619205 219.0775795 378.66989326 C219.16598732 392.46655801 219.23188787 406.26317301 219.27365494 420.0600605 C219.29453225 426.73221824 219.32285309 433.40413185 219.36816406 440.07617188 C219.41161565 446.51468796 219.4355423 452.95300739 219.44591522 459.39165878 C219.45330773 461.84846976 219.46774343 464.30526993 219.48932648 466.76199722 C219.51835022 470.2024082 219.52236253 473.64200589 219.52050781 477.08251953 C219.54207947 478.60706001 219.54207947 478.60706001 219.56408691 480.16239929 C219.53053991 485.91082564 219.10731897 489.51598191 215.06640625 493.953125 C210.90590522 497.10911853 207.27202963 497.3825185 202.21644592 497.34080505 C201.43236514 497.34619059 200.64828436 497.35157613 199.84044355 497.35712487 C197.21646684 497.37141783 194.59299364 497.36429752 191.96899414 497.35717773 C190.08638605 497.3628806 188.20378142 497.36984454 186.32118225 497.37797546 C181.20961845 497.39593112 176.09822609 497.39473396 170.98664021 497.38903308 C166.71963367 497.38594472 162.45266023 497.39202975 158.1856584 497.39807183 C148.11959392 497.41212334 138.0536143 497.41055053 127.98754883 497.39916992 C117.60204177 497.38768765 107.2167929 497.40176485 96.83131987 497.4285664 C87.91483238 497.45071564 78.99842598 497.45736253 70.08191293 497.45148998 C64.7564049 497.44811741 59.43106238 497.45055552 54.10557747 497.46774101 C49.0978065 497.48319566 44.09041835 497.47927096 39.08266258 497.46043587 C37.24525145 497.45674591 35.40781205 497.4598703 33.57042694 497.47032166 C31.06095907 497.48350565 28.55276338 497.47200785 26.04335022 497.45433044 C25.31717579 497.46393545 24.59100137 497.47354046 23.84282166 497.48343652 C18.79065386 497.4102695 15.90404229 496.20880004 12.06640625 492.953125 C7.9493466 488.36998313 8.72672535 482.95081365 8.87890625 477.140625 C8.89920898 475.67206055 8.89920898 475.67206055 8.91992188 474.17382812 C8.95515313 471.76635875 9.0044136 469.36002936 9.06640625 466.953125 C7.856955 466.95773396 6.64750376 466.96234293 5.40140247 466.96709156 C-23.34799459 467.07552389 -52.0973881 467.15789902 -80.84694253 467.20845165 C-84.39023092 467.21470472 -87.93351889 467.22117638 -91.47680664 467.2277832 C-92.53485514 467.22975053 -92.53485514 467.22975053 -93.61427835 467.2317576 C-105.01574925 467.25347793 -116.4170933 467.29288068 -127.8184891 467.33888898 C-139.52886246 467.38574783 -151.23916968 467.41344025 -162.94963294 467.42356747 C-169.52243816 467.43007481 -176.09495627 467.44532452 -182.6676693 467.48177528 C-188.86056987 467.51583981 -195.05306642 467.52615664 -201.24605179 467.51866341 C-203.51270687 467.52003326 -205.77937618 467.52990274 -208.04594994 467.54915237 C-225.68442498 467.69154153 -238.30559725 465.95625253 -251.60546875 453.37109375 C-263.07344592 441.2233138 -263.32945443 427.89540116 -263.0386641 412.26001143 C-262.72141781 402.2752972 -261.70542807 392.33234274 -260.77807617 382.38989258 C-260.54563386 379.81494766 -260.31407754 377.23992263 -260.08332825 374.66482544 C-259.52554694 368.45944191 -258.95678618 362.25511485 -258.38383361 356.05111561 C-257.91811906 351.00586579 -257.45663577 345.96024472 -256.99804115 340.91434288 C-256.93229865 340.19100382 -256.86655615 339.46766475 -256.79882145 338.72240632 C-256.66522017 337.25222034 -256.5316294 335.78203339 -256.39804903 334.3118455 C-255.1516713 320.59931879 -253.89278955 306.88796297 -252.62936781 293.17699756 C-251.54803769 281.43908228 -250.47711761 269.70025527 -249.41381836 257.96069336 C-248.17414591 244.27392734 -246.9283522 230.58774187 -245.67265016 216.90243644 C-245.53862486 215.44160278 -245.40460599 213.98076854 -245.27059364 212.5199337 C-245.20467713 211.80144596 -245.13876062 211.08295822 -245.07084664 210.34269813 C-244.60897968 205.30390966 -244.15139714 200.26474287 -243.69548607 195.22541237 C-243.08150561 188.44051078 -242.45737572 181.656605 -241.82655144 174.87324905 C-241.59715995 172.39039507 -241.370949 169.90724478 -241.14822006 167.42378426 C-240.84273885 164.02361572 -240.52554153 160.62473007 -240.20549011 157.22590637 C-240.12084588 156.25322982 -240.03620164 155.28055327 -239.94899243 154.27840167 C-238.52891962 139.60055961 -234.50928588 126.00661838 -222.8203125 116.17578125 C-212.17084811 108.14197478 -201.53927624 106.34959629 -188.41796875 106.5625 C-187.06749317 106.5699835 -185.71700655 106.57566642 -184.36651611 106.57965088 C-180.85480436 106.59474206 -177.34378087 106.63387448 -173.83233643 106.6784668 C-170.23206893 106.71978218 -166.63168749 106.73773832 -163.03125 106.7578125 C-155.99842062 106.80039028 -148.9660527 106.8684336 -141.93359375 106.953125 C-141.95977783 105.65914795 -141.98596191 104.3651709 -142.01293945 103.03198242 C-142.10485534 98.13600625 -142.16134609 93.24010256 -142.20825195 88.34350586 C-142.23307946 86.24213757 -142.2669535 84.1408526 -142.31079102 82.03979492 C-142.81755219 57.08925949 -137.84373347 35.00291505 -120.93359375 15.953125 C-120.40507812 15.2828125 -119.8765625 14.6125 -119.33203125 13.921875 C-91.27616577 -20.90609594 -35.55651168 -24.80907073 0 0 Z M-95.12109375 33.640625 C-114.94158347 54.47859365 -111.93359375 79.28437913 -111.93359375 106.953125 C-72.33359375 106.953125 -32.73359375 106.953125 8.06640625 106.953125 C8.91693804 65.17621306 8.91693804 65.17621306 -10.62109375 31.765625 C-35.57875465 8.02659989 -70.82987774 11.239776 -95.12109375 33.640625 Z M-202.95703125 140.2578125 C-209.57264399 147.94416025 -209.18211752 159.18832726 -210.04727173 168.89337158 C-210.14290228 169.92547437 -210.23853284 170.95757717 -210.33706129 172.0209558 C-210.65295403 175.44230528 -210.96248853 178.86419815 -211.27197266 182.28613281 C-211.49850188 184.75455511 -211.72540497 187.22294312 -211.95265198 189.69129944 C-212.50272743 195.6784851 -213.04856469 201.6660427 -213.59215595 207.65381941 C-214.03453887 212.52623661 -214.47849185 217.39850832 -214.92353439 222.27068329 C-215.05219928 223.67938859 -215.18086405 225.08809391 -215.30952871 226.49679923 C-215.37358917 227.1981707 -215.43764962 227.89954217 -215.50365131 228.62216732 C-216.7123536 241.8584594 -217.9151325 255.09528485 -219.11614232 268.33227679 C-220.21220673 280.41046084 -221.31598739 292.48792522 -222.42338915 304.56507459 C-223.56349203 316.99968919 -224.69818469 329.43478696 -225.82717645 341.87041545 C-226.45988326 348.83847035 -227.09468834 355.8063182 -227.73521805 362.77365875 C-228.33786805 369.32962168 -228.93289034 375.88624713 -229.52294731 382.44335747 C-229.73974097 384.83958632 -229.95895828 387.23559743 -230.18087578 389.63135719 C-231.60638014 404.85829619 -231.60638014 404.85829619 -232.31356812 420.13128662 C-232.34120932 421.32243954 -232.36885052 422.51359245 -232.39732933 423.74084091 C-231.82577413 427.69998864 -230.39908206 429.84095018 -227.93359375 432.953125 C-221.99505952 437.36895815 -215.80630116 437.0971595 -208.71452332 437.07337952 C-207.31766555 437.07466115 -207.31766555 437.07466115 -205.89258844 437.07596868 C-202.7710648 437.07761627 -199.64959486 437.07211387 -196.52807617 437.06665039 C-194.29091391 437.06636834 -192.05375156 437.06652661 -189.81658936 437.0670929 C-183.74062484 437.06738016 -177.66468002 437.0614948 -171.58872008 437.05451894 C-165.23991861 437.04827368 -158.8911167 437.04768067 -152.54231262 437.04649353 C-141.88538227 437.04373716 -131.22845971 437.03748814 -120.5715332 437.02856445 C-109.59562211 437.01938323 -98.61971298 437.01230587 -87.64379883 437.00805664 C-86.96706445 437.00779392 -86.29033007 437.00753119 -85.59308859 437.00726051 C-82.1980576 437.00595546 -78.8030266 437.00469175 -75.40799558 437.00344861 C-47.24985547 436.99308456 -19.09172766 436.97465085 9.06640625 436.953125 C9.06640625 417.153125 9.06640625 397.353125 9.06640625 376.953125 C-1.32859375 376.458125 -1.32859375 376.458125 -11.93359375 375.953125 C-18.17432795 372.20868448 -18.17432795 372.20868448 -19.93359375 367.953125 C-20.38044611 364.58688859 -20.40161655 361.25176977 -20.40234375 357.859375 C-20.40995728 356.87626343 -20.4175708 355.89315186 -20.42541504 354.88024902 C-20.43620845 352.79909802 -20.43907223 350.71789288 -20.43457031 348.63671875 C-20.43360544 345.49123458 -20.47508064 342.34825253 -20.51953125 339.203125 C-20.61092357 323.92800695 -19.05341609 311.43310353 -7.93359375 299.953125 C6.10634427 286.35365563 22.63979609 287.05409815 41.06640625 286.953125 C40.82736572 285.85194336 40.82736572 285.85194336 40.58349609 284.72851562 C38.09364807 271.36468546 39.44356013 258.03618411 46.640625 246.41015625 C53.44078412 236.94699776 62.67427557 230.55638236 74.06640625 227.953125 C84.89729852 226.71262173 95.15020473 227.12115988 105.06640625 231.953125 C106.05640625 232.283125 107.04640625 232.613125 108.06640625 232.953125 C108.27116604 224.16984583 107.63168313 215.53337114 106.82421875 206.79296875 C106.69421389 205.35293513 106.56448918 203.91287619 106.43502808 202.47279358 C106.1641921 199.47301189 105.88978051 196.47358496 105.61279297 193.47436523 C105.26057098 189.65703224 104.9177086 185.83892621 104.57757759 182.02049923 C104.31208253 179.0524972 104.04141004 176.084984 103.76925278 173.11758614 C103.64087984 171.71091863 103.51410011 170.30410467 103.3890419 168.8971386 C102.61895213 153.62086818 102.61895213 153.62086818 96.08984375 140.328125 C89.91093575 136.12933037 81.93247041 136.68466664 74.78515625 136.7578125 C73.73106567 136.7606424 72.6769751 136.76347229 71.59094238 136.76638794 C68.24931115 136.77751514 64.90795544 136.80260596 61.56640625 136.828125 C59.29036847 136.83816444 57.01432647 136.8472886 54.73828125 136.85546875 C49.18079999 136.87572196 43.62390878 136.9148853 38.06640625 136.953125 C38.06640625 146.853125 38.06640625 156.753125 38.06640625 166.953125 C44.75189654 167.16264869 44.75189654 167.16264869 51.43823242 167.34106445 C60.35968881 167.69265316 60.35968881 167.69265316 64.06640625 170.953125 C66.90119052 174.6173003 67.47652822 177.36385485 67.44140625 181.953125 C67.44914062 182.96375 67.456875 183.974375 67.46484375 185.015625 C67.00066566 188.43780069 66.17573175 190.22666059 64.06640625 192.953125 C60.00222152 195.99022329 56.98759052 196.33174759 51.96875 196.34130859 C51.27379425 196.34656555 50.5788385 196.35182251 49.86282349 196.35723877 C47.57628595 196.3703923 45.2904503 196.36171772 43.00390625 196.3515625 C41.40877143 196.35358458 39.81363752 196.35649714 38.21850586 196.36026001 C34.87963029 196.36467705 31.54099592 196.35827245 28.20214844 196.34423828 C23.92820536 196.32714658 19.6548275 196.33699111 15.38090515 196.35495567 C12.08829511 196.36581038 8.79581847 196.36233947 5.50320435 196.3545723 C3.9275811 196.35257495 2.35194564 196.35501321 0.77633667 196.36201096 C-1.4280798 196.36965347 -3.63158843 196.35798328 -5.8359375 196.34130859 C-7.08882568 196.33892181 -8.34171387 196.33653503 -9.63256836 196.33407593 C-13.21084124 195.92112958 -15.0696962 195.09326846 -17.93359375 192.953125 C-20.76837802 189.2889497 -21.34371572 186.54239515 -21.30859375 181.953125 C-21.31632813 180.9425 -21.3240625 179.931875 -21.33203125 178.890625 C-20.7407744 174.53155491 -19.20569116 172.0720767 -15.921875 169.18359375 C-11.3989279 167.32120377 -6.9670266 167.38042936 -2.12109375 167.265625 C1.24078125 167.1625 4.60265625 167.059375 8.06640625 166.953125 C8.06640625 157.053125 8.06640625 147.153125 8.06640625 136.953125 C-31.53359375 136.953125 -71.13359375 136.953125 -111.93359375 136.953125 C-111.93359375 146.853125 -111.93359375 156.753125 -111.93359375 166.953125 C-105.24810346 167.16264869 -105.24810346 167.16264869 -98.56176758 167.34106445 C-89.64031119 167.69265316 -89.64031119 167.69265316 -85.93359375 170.953125 C-83.09880948 174.6173003 -82.52347178 177.36385485 -82.55859375 181.953125 C-82.55085937 182.96375 -82.543125 183.974375 -82.53515625 185.015625 C-82.99933434 188.43780069 -83.82426825 190.22666059 -85.93359375 192.953125 C-89.99777848 195.99022329 -93.01240948 196.33174759 -98.03125 196.34130859 C-98.72620575 196.34656555 -99.4211615 196.35182251 -100.13717651 196.35723877 C-102.42371405 196.3703923 -104.7095497 196.36171772 -106.99609375 196.3515625 C-108.59122857 196.35358458 -110.18636248 196.35649714 -111.78149414 196.36026001 C-115.12036971 196.36467705 -118.45900408 196.35827245 -121.79785156 196.34423828 C-126.07179464 196.32714658 -130.3451725 196.33699111 -134.61909485 196.35495567 C-137.91170489 196.36581038 -141.20418153 196.36233947 -144.49679565 196.3545723 C-146.0724189 196.35257495 -147.64805436 196.35501321 -149.22366333 196.36201096 C-151.4280798 196.36965347 -153.63158843 196.35798328 -155.8359375 196.34130859 C-157.08882568 196.33892181 -158.34171387 196.33653503 -159.63256836 196.33407593 C-163.21084124 195.92112958 -165.0696962 195.09326846 -167.93359375 192.953125 C-170.76837802 189.2889497 -171.34371572 186.54239515 -171.30859375 181.953125 C-171.32019531 180.4371875 -171.32019531 180.4371875 -171.33203125 178.890625 C-170.7407744 174.53155491 -169.20569116 172.0720767 -165.921875 169.18359375 C-161.3989279 167.32120377 -156.9670266 167.38042936 -152.12109375 167.265625 C-148.75921875 167.1625 -145.39734375 167.059375 -141.93359375 166.953125 C-141.93359375 157.053125 -141.93359375 147.153125 -141.93359375 136.953125 C-149.05045624 136.9071108 -156.16679848 136.86731503 -163.28369141 136.84326172 C-165.70265455 136.8332299 -168.12160565 136.81960129 -170.54052734 136.80224609 C-174.02574648 136.77787393 -177.51080468 136.76661342 -180.99609375 136.7578125 C-182.07036621 136.74748993 -183.14463867 136.73716736 -184.25146484 136.72653198 C-194.02354832 136.68859567 -194.02354832 136.68859567 -202.95703125 140.2578125 Z M71.19140625 264.078125 C69.50156374 268.39661142 69.40679642 272.3798302 70.06640625 276.953125 C72.25984435 281.42123966 74.55345762 283.86175856 79.06640625 285.953125 C83.32809582 287.07220176 87.50434284 287.07004541 91.87890625 287.015625 C92.57177734 287.01111328 93.26464844 287.00660156 93.97851562 287.00195312 C95.67451693 286.99025656 97.37047328 286.97232424 99.06640625 286.953125 C99.12095034 284.59863825 99.16033415 282.24544625 99.19140625 279.890625 C99.21460938 278.57964844 99.2378125 277.26867187 99.26171875 275.91796875 C98.99002864 270.40265955 98.2828619 266.35672767 94.62890625 262.140625 C90.01548242 258.20233637 87.47622212 257.5076662 81.57421875 257.63671875 C76.86137853 258.23132943 74.2353956 260.62827041 71.19140625 264.078125 Z M133.06640625 261.953125 C128.94159771 267.50028132 128.92049543 273.06067822 129.00390625 279.765625 C129.00841797 280.45849609 129.01292969 281.15136719 129.01757812 281.86523438 C129.02927469 283.56123568 129.04720701 285.25719203 129.06640625 286.953125 C131.420893 287.00766909 133.774085 287.0470529 136.12890625 287.078125 C137.43988281 287.10132813 138.75085938 287.12453125 140.1015625 287.1484375 C145.6168717 286.87674739 149.66280358 286.16958065 153.87890625 282.515625 C157.81719488 277.90220117 158.51186505 275.36294087 158.3828125 269.4609375 C157.78820182 264.74809728 155.39126084 262.12211435 151.94140625 259.078125 C145.09567779 256.39936169 138.6112491 256.94924242 133.06640625 261.953125 Z M14.25390625 321.390625 C7.33706403 329.49321161 9.06640625 335.68199801 9.06640625 346.953125 C38.76640625 346.953125 68.46640625 346.953125 99.06640625 346.953125 C99.06640625 337.053125 99.06640625 327.153125 99.06640625 316.953125 C89.40851939 316.90787269 79.75070339 316.87120796 70.09273434 316.84950066 C65.60776252 316.83908028 61.12286723 316.82495304 56.63793945 316.80224609 C52.30668451 316.78045536 47.97550301 316.76854324 43.64419746 316.76337051 C41.99485684 316.75968593 40.34552007 316.7524909 38.69621086 316.74166489 C36.3793366 316.72706702 34.06276274 316.7251505 31.74584961 316.72607422 C30.42902695 316.721633 29.11220428 316.71719177 27.75547791 316.71261597 C22.37096343 317.0636594 18.37125858 317.82225298 14.25390625 321.390625 Z M129.06640625 316.953125 C129.06640625 326.853125 129.06640625 336.753125 129.06640625 346.953125 C158.76640625 346.953125 188.46640625 346.953125 219.06640625 346.953125 C219.98164872 333.52981248 219.98164872 333.52981248 214.62890625 322.140625 C208.76971766 317.13887864 204.09053805 316.80026253 196.61401367 316.83959961 C195.51564178 316.83938057 195.51564178 316.83938057 194.39508057 316.8391571 C191.9873147 316.83985087 189.57962727 316.84761808 187.171875 316.85546875 C185.49750307 316.85733483 183.8231306 316.85875784 182.14875793 316.85975647 C177.75113404 316.86356665 173.35354341 316.8733841 168.95593262 316.88446045 C164.46476694 316.89470684 159.97359588 316.899261 155.48242188 316.90429688 C146.67706641 316.91500775 137.8717443 316.93259237 129.06640625 316.953125 Z M39.06640625 376.953125 C39.06640625 406.653125 39.06640625 436.353125 39.06640625 466.953125 C88.56640625 466.953125 138.06640625 466.953125 189.06640625 466.953125 C189.06640625 437.253125 189.06640625 407.553125 189.06640625 376.953125 C169.26640625 376.953125 149.46640625 376.953125 129.06640625 376.953125 C128.73640625 383.883125 128.40640625 390.813125 128.06640625 397.953125 C124.45206362 403.97702938 124.45206362 403.97702938 120.06640625 405.953125 C117.12890625 406.3515625 117.12890625 406.3515625 114.06640625 406.328125 C113.05578125 406.33585937 112.04515625 406.34359375 111.00390625 406.3515625 C107.58173056 405.88738441 105.79287066 405.0624505 103.06640625 402.953125 C100.06640625 397.953125 100.06640625 397.953125 99.06640625 376.953125 C79.26640625 376.953125 59.46640625 376.953125 39.06640625 376.953125 Z " fill="#634024" transform="translate(262.93359375,15.046875)"/>
</svg>
